<?xml version="1.0" encoding="UTF-8" standalone="no"?>
<!DOCTYPE svg PUBLIC "-//W3C//DTD SVG 1.1//EN" "http://www.w3.org/Graphics/SVG/1.1/DTD/svg11.dtd">
<svg xmlns="http://www.w3.org/2000/svg" xmlns:xlink="http://www.w3.org/1999/xlink" version="1.1" width="208.59075pt" height="189.53162pt" viewBox="0 0 208.59075 189.53162">
<g enable-background="new">
<g>
<clipPath id="cp0">
<path d="M .445 0 L 194.445 0 L 194.445 189.508 L .445 189.508 Z "/>
</clipPath>
<g clip-path="url(#cp0)">
<clipPath id="cp1">
<path d="M 0 0 L 209 0 L 209 190 L 0 190 Z "/>
</clipPath>
<g clip-path="url(#cp1)">
<clipPath id="cp2">
<path d="M .707 13.508 L 160.445 13.508 L 160.445 173.508 L .707 173.508 Z "/>
</clipPath>
<g clip-path="url(#cp2)">
<clipPath id="cp3">
<path d="M 0 0 L 209 0 L 209 190 L 0 190 Z "/>
</clipPath>
<g clip-path="url(#cp3)">
<path stroke-width="1.429127" stroke-linecap="butt" stroke-miterlimit="4" stroke-linejoin="miter" fill="none" stroke="#000000" d="M 1.496 14.668 L 158.996 14.668 L 158.996 172.168 L 1.496 172.168 Z "/>
</g>
</g>
<clipPath id="cp4">
<path d="M .707 6.508 L 167.445 6.508 L 167.445 180.508 L .707 180.508 Z "/>
</clipPath>
<g clip-path="url(#cp4)">
<clipPath id="cp5">
<path d="M 0 0 L 209 0 L 209 190 L 0 190 Z "/>
</clipPath>
<g clip-path="url(#cp5)">
<path stroke-width="1.429127" stroke-linecap="butt" stroke-miterlimit="4" stroke-linejoin="miter" fill="none" stroke="#000000" d="M 1.496 14.668 L 158.996 172.168 "/>
<path stroke-width="1.429127" stroke-linecap="butt" stroke-miterlimit="4" stroke-linejoin="miter" fill="none" stroke="#000000" d="M 158.996 14.668 L 1.496 172.168 "/>
</g>
</g>
</g>
<path d="M 96.84 93.738 C 96.84 93.145 96.543 92.973 96.371 92.973 C 96.09 92.973 95.824 93.27 95.824 93.504 C 95.824 93.645 95.887 93.707 95.98 93.801 C 96.105 93.926 96.371 94.207 96.371 94.723 C 96.371 95.098 96.059 96.16 95.777 96.723 C 95.496 97.301 95.105 97.676 94.574 97.676 C 94.059 97.676 93.762 97.348 93.762 96.738 C 93.762 96.426 93.84 96.082 93.887 95.941 L 94.34 94.098 C 94.402 93.863 94.512 93.457 94.512 93.395 C 94.512 93.191 94.355 93.098 94.199 93.098 C 94.059 93.098 93.871 93.191 93.793 93.41 C 93.762 93.488 93.246 95.566 93.168 95.848 C 93.09 96.176 93.074 96.379 93.074 96.566 C 93.074 96.691 93.074 96.707 93.09 96.77 C 92.824 97.348 92.512 97.676 92.074 97.676 C 91.199 97.676 91.199 96.879 91.199 96.691 C 91.199 96.332 91.262 95.91 91.777 94.566 C 91.887 94.238 91.965 94.098 91.965 93.879 C 91.965 93.379 91.605 92.973 91.059 92.973 C 90.027 92.973 89.621 94.566 89.621 94.66 C 89.621 94.77 89.762 94.77 89.762 94.77 C 89.871 94.77 89.871 94.754 89.934 94.566 C 90.23 93.551 90.652 93.223 91.027 93.223 C 91.137 93.223 91.309 93.238 91.309 93.582 C 91.309 93.848 91.184 94.16 91.105 94.348 C 90.621 95.629 90.496 96.129 90.496 96.551 C 90.496 97.535 91.23 97.926 92.043 97.926 C 92.23 97.926 92.746 97.926 93.184 97.16 C 93.465 97.848 94.215 97.926 94.543 97.926 C 95.355 97.926 95.84 97.238 96.121 96.582 C 96.496 95.723 96.84 94.27 96.84 93.738 Z M 96.84 93.738 "/>
<path d="M 100.996 98.078 C 100.996 97.406 100.465 96.812 99.652 96.625 C 100.277 96.406 100.762 95.875 100.762 95.234 C 100.762 94.594 100.043 94.141 99.215 94.141 C 98.355 94.141 97.715 94.594 97.715 95.203 C 97.715 95.5 97.902 95.625 98.121 95.625 C 98.371 95.625 98.527 95.453 98.527 95.219 C 98.527 94.922 98.262 94.812 98.09 94.812 C 98.434 94.375 99.043 94.344 99.184 94.344 C 99.387 94.344 99.996 94.406 99.996 95.234 C 99.996 95.781 99.762 96.125 99.652 96.25 C 99.418 96.5 99.23 96.516 98.746 96.547 C 98.59 96.547 98.527 96.562 98.527 96.672 C 98.527 96.781 98.605 96.781 98.746 96.781 L 99.137 96.781 C 99.762 96.781 100.168 97.234 100.168 98.078 C 100.168 99.078 99.605 99.359 99.184 99.359 C 98.746 99.359 98.137 99.203 97.855 98.781 C 98.152 98.781 98.355 98.594 98.355 98.344 C 98.355 98.078 98.168 97.906 97.902 97.906 C 97.699 97.906 97.465 98.031 97.465 98.359 C 97.465 99.109 98.277 99.609 99.199 99.609 C 100.246 99.609 100.996 98.875 100.996 98.078 Z M 100.996 98.078 "/>
<path d="M 112.742 94.02 C 112.742 93.801 112.539 93.801 112.383 93.801 L 105.852 93.801 C 105.695 93.801 105.492 93.801 105.492 94.02 C 105.492 94.238 105.695 94.238 105.867 94.238 L 112.383 94.238 C 112.539 94.238 112.742 94.238 112.742 94.02 Z M 112.742 96.129 C 112.742 95.91 112.539 95.91 112.383 95.91 L 105.867 95.91 C 105.695 95.91 105.492 95.91 105.492 96.129 C 105.492 96.348 105.695 96.348 105.852 96.348 L 112.383 96.348 C 112.539 96.348 112.742 96.348 112.742 96.129 Z M 112.742 96.129 "/>
<path d="M 120.012 100.426 C 120.012 100.379 120.012 100.363 119.824 100.176 C 118.465 98.801 118.121 96.738 118.121 95.082 C 118.121 93.176 118.527 91.285 119.871 89.91 C 120.012 89.785 120.012 89.77 120.012 89.723 C 120.012 89.66 119.965 89.629 119.902 89.629 C 119.793 89.629 118.809 90.363 118.168 91.754 C 117.605 92.941 117.48 94.16 117.48 95.082 C 117.48 95.926 117.605 97.238 118.199 98.473 C 118.855 99.816 119.793 100.52 119.902 100.52 C 119.965 100.52 120.012 100.488 120.012 100.426 Z M 120.012 100.426 "/>
<path d="M 126.086 92.363 C 126.086 92.316 126.055 92.254 125.961 92.254 C 125.867 92.254 125.852 92.316 125.789 92.504 C 125.68 92.941 125.539 93.363 125.227 93.363 C 125.039 93.363 124.961 93.207 124.961 92.988 C 124.961 92.848 125.039 92.582 125.086 92.379 L 125.289 91.566 C 125.367 91.27 125.367 91.223 125.445 90.957 C 125.492 90.77 125.57 90.426 125.57 90.395 C 125.57 90.207 125.414 90.145 125.32 90.145 C 125.195 90.145 124.992 90.223 124.961 90.473 C 124.883 90.332 124.664 89.988 124.164 89.988 C 123.227 89.988 122.18 91.098 122.18 92.27 C 122.18 93.113 122.711 93.582 123.32 93.582 C 123.836 93.582 124.273 93.176 124.414 93.02 C 124.555 93.566 125.102 93.582 125.195 93.582 C 125.57 93.582 125.742 93.285 125.805 93.145 C 125.977 92.863 126.086 92.395 126.086 92.363 Z M 124.414 92.645 C 124.023 93.191 123.602 93.363 123.352 93.363 C 122.977 93.363 122.805 93.02 122.805 92.613 C 122.805 92.238 123.008 91.379 123.195 91.035 C 123.414 90.551 123.805 90.207 124.18 90.207 C 124.695 90.207 124.852 90.801 124.852 90.895 C 124.852 90.926 124.648 91.707 124.602 91.91 C 124.492 92.285 124.492 92.301 124.414 92.645 Z M 124.414 92.645 "/>
<path stroke-width=".398" stroke-linecap="butt" stroke-miterlimit="10" stroke-linejoin="miter" fill="none" stroke="#000000" d="M 121.84 95.074 L 126.336 95.074 "/>
<path d="M 125.766 100.141 L 125.516 100.141 C 125.5 100.297 125.438 100.688 125.344 100.844 C 125.297 100.906 124.688 100.906 124.562 100.906 L 123.141 100.906 L 124.219 99.938 C 124.344 99.812 124.672 99.547 124.812 99.438 C 125.297 98.984 125.766 98.547 125.766 97.828 C 125.766 96.875 124.969 96.266 123.984 96.266 C 123.016 96.266 122.391 96.984 122.391 97.703 C 122.391 98.094 122.703 98.141 122.812 98.141 C 122.984 98.141 123.234 98.031 123.234 97.719 C 123.234 97.312 122.828 97.312 122.734 97.312 C 122.969 96.719 123.5 96.531 123.891 96.531 C 124.625 96.531 125.016 97.156 125.016 97.828 C 125.016 98.656 124.438 99.266 123.484 100.219 L 122.484 101.266 C 122.391 101.344 122.391 101.359 122.391 101.562 L 125.531 101.562 Z M 125.766 100.141 "/>
<path d="M 129.75 97.785 C 129.75 97.066 129.469 96.645 129.047 96.645 C 128.688 96.645 128.469 96.91 128.469 97.223 C 128.469 97.52 128.688 97.801 129.047 97.801 C 129.172 97.801 129.312 97.754 129.422 97.66 C 129.469 97.645 129.484 97.629 129.484 97.629 C 129.484 97.629 129.5 97.645 129.5 97.785 C 129.5 98.598 129.125 99.254 128.766 99.613 C 128.641 99.738 128.641 99.754 128.641 99.785 C 128.641 99.863 128.703 99.91 128.75 99.91 C 128.875 99.91 129.75 99.066 129.75 97.785 Z M 129.75 97.785 "/>
<path d="M 137.379 91.301 C 137.379 90.504 136.879 89.988 136.238 89.988 C 135.785 89.988 135.441 90.27 135.27 90.426 L 135.816 88.207 C 135.832 88.191 135.848 88.082 135.848 88.082 C 135.848 88.051 135.816 87.973 135.723 87.973 C 135.691 87.973 135.441 88.004 135.27 88.02 L 134.816 88.051 C 134.645 88.066 134.566 88.066 134.566 88.207 C 134.566 88.332 134.676 88.332 134.77 88.332 C 135.16 88.332 135.16 88.379 135.16 88.441 C 135.16 88.488 135.066 88.816 135.02 88.988 L 134.332 91.77 C 134.27 92.035 134.27 92.16 134.27 92.285 C 134.27 93.113 134.77 93.582 135.379 93.582 C 136.363 93.582 137.379 92.457 137.379 91.301 Z M 136.77 90.957 C 136.77 91.254 136.582 92.113 136.348 92.582 C 136.145 93.004 135.754 93.363 135.379 93.363 C 135.098 93.363 134.816 93.145 134.816 92.551 C 134.816 92.348 134.848 92.145 134.941 91.754 L 135.113 91.066 C 135.16 90.926 135.16 90.91 135.254 90.801 C 135.52 90.457 135.879 90.207 136.207 90.207 C 136.613 90.207 136.77 90.598 136.77 90.957 Z M 136.77 90.957 "/>
<path stroke-width=".398" stroke-linecap="butt" stroke-miterlimit="10" stroke-linejoin="miter" fill="none" stroke="#000000" d="M 133.578 95.074 L 137.809 95.074 "/>
<path d="M 137.371 100.141 L 137.121 100.141 C 137.105 100.297 137.043 100.688 136.949 100.844 C 136.902 100.906 136.293 100.906 136.168 100.906 L 134.746 100.906 L 135.824 99.938 C 135.949 99.812 136.277 99.547 136.418 99.438 C 136.902 98.984 137.371 98.547 137.371 97.828 C 137.371 96.875 136.574 96.266 135.59 96.266 C 134.621 96.266 133.996 96.984 133.996 97.703 C 133.996 98.094 134.309 98.141 134.418 98.141 C 134.59 98.141 134.84 98.031 134.84 97.719 C 134.84 97.312 134.434 97.312 134.34 97.312 C 134.574 96.719 135.105 96.531 135.496 96.531 C 136.23 96.531 136.621 97.156 136.621 97.828 C 136.621 98.656 136.043 99.266 135.09 100.219 L 134.09 101.266 C 133.996 101.344 133.996 101.359 133.996 101.562 L 137.137 101.562 Z M 137.371 100.141 "/>
<path d="M 142.16 95.082 C 142.16 94.223 142.035 92.91 141.441 91.676 C 140.785 90.332 139.848 89.629 139.738 89.629 C 139.676 89.629 139.629 89.66 139.629 89.723 C 139.629 89.77 139.629 89.785 139.832 89.988 C 140.895 91.066 141.52 92.801 141.52 95.082 C 141.52 96.941 141.113 98.863 139.77 100.238 C 139.629 100.363 139.629 100.379 139.629 100.426 C 139.629 100.488 139.676 100.52 139.738 100.52 C 139.848 100.52 140.832 99.785 141.473 98.395 C 142.02 97.207 142.16 95.988 142.16 95.082 Z M 142.16 95.082 "/>
<path d="M 166.34 4.109 C 166.34 3.516 166.043 3.344 165.871 3.344 C 165.59 3.344 165.324 3.641 165.324 3.875 C 165.324 4.016 165.387 4.078 165.48 4.172 C 165.605 4.297 165.871 4.578 165.871 5.094 C 165.871 5.469 165.559 6.531 165.277 7.094 C 164.996 7.672 164.605 8.047 164.074 8.047 C 163.559 8.047 163.262 7.719 163.262 7.109 C 163.262 6.797 163.34 6.453 163.387 6.312 L 163.84 4.469 C 163.902 4.234 164.012 3.828 164.012 3.766 C 164.012 3.562 163.855 3.469 163.699 3.469 C 163.559 3.469 163.371 3.562 163.293 3.781 C 163.262 3.859 162.746 5.938 162.668 6.219 C 162.59 6.547 162.574 6.75 162.574 6.938 C 162.574 7.062 162.574 7.078 162.59 7.141 C 162.324 7.719 162.012 8.047 161.574 8.047 C 160.699 8.047 160.699 7.25 160.699 7.062 C 160.699 6.703 160.762 6.281 161.277 4.938 C 161.387 4.609 161.465 4.469 161.465 4.25 C 161.465 3.75 161.105 3.344 160.559 3.344 C 159.527 3.344 159.121 4.938 159.121 5.031 C 159.121 5.141 159.262 5.141 159.262 5.141 C 159.371 5.141 159.371 5.125 159.434 4.938 C 159.73 3.922 160.152 3.594 160.527 3.594 C 160.637 3.594 160.809 3.609 160.809 3.953 C 160.809 4.219 160.684 4.531 160.605 4.719 C 160.121 6 159.996 6.5 159.996 6.922 C 159.996 7.906 160.73 8.297 161.543 8.297 C 161.73 8.297 162.246 8.297 162.684 7.531 C 162.965 8.219 163.715 8.297 164.043 8.297 C 164.855 8.297 165.34 7.609 165.621 6.953 C 165.996 6.094 166.34 4.641 166.34 4.109 Z M 166.34 4.109 "/>
<path d="M 170.414 8.215 C 170.414 7.293 169.742 6.465 168.805 6.465 C 168.414 6.465 168.039 6.59 167.727 6.871 L 167.727 5.324 C 167.836 5.355 168.148 5.449 168.492 5.449 C 169.492 5.449 170.086 4.746 170.086 4.621 C 170.086 4.527 170.039 4.512 169.992 4.512 C 169.992 4.512 169.961 4.512 169.898 4.543 C 169.586 4.668 169.211 4.762 168.789 4.762 C 168.32 4.762 167.93 4.652 167.68 4.543 C 167.602 4.512 167.57 4.512 167.57 4.512 C 167.477 4.512 167.477 4.59 167.477 4.746 L 167.477 7.074 C 167.477 7.215 167.477 7.309 167.602 7.309 C 167.664 7.309 167.68 7.277 167.727 7.215 C 167.82 7.105 168.117 6.699 168.805 6.699 C 169.242 6.699 169.461 7.059 169.539 7.215 C 169.664 7.496 169.68 7.871 169.68 8.168 C 169.68 8.465 169.68 8.902 169.461 9.246 C 169.305 9.496 168.977 9.73 168.555 9.73 C 168.039 9.73 167.539 9.418 167.352 8.887 C 167.367 8.902 167.43 8.902 167.43 8.902 C 167.648 8.902 167.836 8.762 167.836 8.512 C 167.836 8.215 167.602 8.105 167.445 8.105 C 167.289 8.105 167.039 8.184 167.039 8.527 C 167.039 9.246 167.664 9.98 168.57 9.98 C 169.57 9.98 170.414 9.199 170.414 8.215 Z M 170.414 8.215 "/>
<path d="M 182.238 4.391 C 182.238 4.172 182.035 4.172 181.879 4.172 L 175.348 4.172 C 175.191 4.172 174.988 4.172 174.988 4.391 C 174.988 4.609 175.191 4.609 175.363 4.609 L 181.879 4.609 C 182.035 4.609 182.238 4.609 182.238 4.391 Z M 182.238 6.5 C 182.238 6.281 182.035 6.281 181.879 6.281 L 175.363 6.281 C 175.191 6.281 174.988 6.281 174.988 6.5 C 174.988 6.719 175.191 6.719 175.348 6.719 L 181.879 6.719 C 182.035 6.719 182.238 6.719 182.238 6.5 Z M 182.238 6.5 "/>
<path d="M 189.508 10.797 C 189.508 10.75 189.508 10.734 189.32 10.547 C 187.961 9.172 187.617 7.109 187.617 5.453 C 187.617 3.547 188.023 1.656 189.367 .281 C 189.508 .156 189.508 .141 189.508 .094 C 189.508 .031 189.461 0 189.398 0 C 189.289 0 188.305 .734 187.664 2.125 C 187.102 3.312 186.977 4.531 186.977 5.453 C 186.977 6.297 187.102 7.609 187.695 8.844 C 188.352 10.188 189.289 10.891 189.398 10.891 C 189.461 10.891 189.508 10.859 189.508 10.797 Z M 189.508 10.797 "/>
</g>
<path d="M 195.574 6.609 C 195.574 6.5 195.465 6.5 195.434 6.5 C 195.324 6.5 195.324 6.547 195.277 6.703 C 195.105 7.406 194.902 8.047 194.449 8.047 C 194.168 8.047 194.121 7.766 194.121 7.547 C 194.121 7.312 194.152 7.219 194.277 6.75 L 194.512 5.766 L 194.902 4.234 C 194.98 3.922 194.98 3.906 194.98 3.859 C 194.98 3.672 194.855 3.562 194.668 3.562 C 194.402 3.562 194.23 3.812 194.199 4.047 C 194.012 3.641 193.699 3.344 193.199 3.344 C 191.918 3.344 190.574 4.953 190.574 6.547 C 190.574 7.578 191.168 8.297 192.027 8.297 C 192.246 8.297 192.793 8.25 193.434 7.469 C 193.527 7.938 193.918 8.297 194.434 8.297 C 194.809 8.297 195.059 8.047 195.246 7.688 C 195.434 7.297 195.574 6.609 195.574 6.609 Z M 194.043 4.734 L 193.496 6.875 C 193.434 7.078 193.434 7.094 193.277 7.281 C 192.793 7.875 192.355 8.047 192.043 8.047 C 191.496 8.047 191.34 7.453 191.34 7.031 C 191.34 6.484 191.699 5.141 191.949 4.641 C 192.293 4 192.777 3.594 193.215 3.594 C 193.918 3.594 194.074 4.484 194.074 4.547 C 194.074 4.609 194.059 4.688 194.043 4.734 Z M 194.043 4.734 "/>
<path d="M 198.125 8.156 C 198.125 7.438 197.844 7.016 197.422 7.016 C 197.062 7.016 196.844 7.281 196.844 7.594 C 196.844 7.891 197.062 8.172 197.422 8.172 C 197.547 8.172 197.688 8.125 197.797 8.031 C 197.844 8.016 197.859 8 197.859 8 C 197.859 8 197.875 8.016 197.875 8.156 C 197.875 8.969 197.5 9.625 197.141 9.984 C 197.016 10.109 197.016 10.125 197.016 10.156 C 197.016 10.234 197.078 10.281 197.125 10.281 C 197.25 10.281 198.125 9.438 198.125 8.156 Z M 198.125 8.156 "/>
<path d="M 205.289 5.094 C 205.289 4.109 204.711 3.344 203.836 3.344 C 203.336 3.344 202.883 3.672 202.555 4 L 203.367 .719 C 203.367 .719 203.367 .609 203.227 .609 C 202.977 .609 202.18 .688 201.898 .719 C 201.805 .719 201.68 .734 201.68 .938 C 201.68 1.062 201.789 1.062 201.945 1.062 C 202.477 1.062 202.492 1.141 202.492 1.25 C 202.492 1.328 202.398 1.688 202.336 1.922 L 201.445 5.484 C 201.32 6.016 201.273 6.203 201.273 6.578 C 201.273 7.609 201.852 8.297 202.648 8.297 C 203.945 8.297 205.289 6.672 205.289 5.094 Z M 203.945 6.922 C 203.586 7.656 203.086 8.047 202.648 8.047 C 202.289 8.047 201.93 7.75 201.93 6.953 C 201.93 6.75 201.93 6.531 202.102 5.844 L 202.336 4.844 C 202.398 4.609 202.398 4.578 202.508 4.469 C 203.039 3.75 203.523 3.594 203.805 3.594 C 204.211 3.594 204.492 3.922 204.492 4.609 C 204.492 5.266 204.133 6.516 203.945 6.922 Z M 203.945 6.922 "/>
<path d="M 208.59 5.453 C 208.59 4.594 208.465 3.281 207.871 2.047 C 207.215 .703 206.277 0 206.168 0 C 206.105 0 206.059 .031 206.059 .094 C 206.059 .141 206.059 .156 206.262 .359 C 207.324 1.438 207.949 3.172 207.949 5.453 C 207.949 7.312 207.543 9.234 206.199 10.609 C 206.059 10.734 206.059 10.75 206.059 10.797 C 206.059 10.859 206.105 10.891 206.168 10.891 C 206.277 10.891 207.262 10.156 207.902 8.766 C 208.449 7.578 208.59 6.359 208.59 5.453 Z M 208.59 5.453 "/>
<path d="M 165.246 181.656 C 165.246 181.062 164.949 180.891 164.777 180.891 C 164.496 180.891 164.23 181.188 164.23 181.422 C 164.23 181.562 164.293 181.625 164.387 181.719 C 164.512 181.844 164.777 182.125 164.777 182.641 C 164.777 183.016 164.465 184.078 164.184 184.641 C 163.902 185.219 163.512 185.594 162.98 185.594 C 162.465 185.594 162.168 185.266 162.168 184.656 C 162.168 184.344 162.246 184 162.293 183.859 L 162.746 182.016 C 162.809 181.781 162.918 181.375 162.918 181.312 C 162.918 181.109 162.762 181.016 162.605 181.016 C 162.465 181.016 162.277 181.109 162.199 181.328 C 162.168 181.406 161.652 183.484 161.574 183.766 C 161.496 184.094 161.48 184.297 161.48 184.484 C 161.48 184.609 161.48 184.625 161.496 184.688 C 161.23 185.266 160.918 185.594 160.48 185.594 C 159.605 185.594 159.605 184.797 159.605 184.609 C 159.605 184.25 159.668 183.828 160.184 182.484 C 160.293 182.156 160.371 182.016 160.371 181.797 C 160.371 181.297 160.012 180.891 159.465 180.891 C 158.434 180.891 158.027 182.484 158.027 182.578 C 158.027 182.688 158.168 182.688 158.168 182.688 C 158.277 182.688 158.277 182.672 158.34 182.484 C 158.637 181.469 159.059 181.141 159.434 181.141 C 159.543 181.141 159.715 181.156 159.715 181.5 C 159.715 181.766 159.59 182.078 159.512 182.266 C 159.027 183.547 158.902 184.047 158.902 184.469 C 158.902 185.453 159.637 185.844 160.449 185.844 C 160.637 185.844 161.152 185.844 161.59 185.078 C 161.871 185.766 162.621 185.844 162.949 185.844 C 163.762 185.844 164.246 185.156 164.527 184.5 C 164.902 183.641 165.246 182.188 165.246 181.656 Z M 165.246 181.656 "/>
<path d="M 169.32 185.934 L 169.07 185.934 C 169.055 186.09 168.992 186.48 168.898 186.637 C 168.852 186.699 168.242 186.699 168.117 186.699 L 166.695 186.699 L 167.773 185.73 C 167.898 185.605 168.227 185.34 168.367 185.23 C 168.852 184.777 169.32 184.34 169.32 183.621 C 169.32 182.668 168.523 182.059 167.539 182.059 C 166.57 182.059 165.945 182.777 165.945 183.496 C 165.945 183.887 166.258 183.934 166.367 183.934 C 166.539 183.934 166.789 183.824 166.789 183.512 C 166.789 183.105 166.383 183.105 166.289 183.105 C 166.523 182.512 167.055 182.324 167.445 182.324 C 168.18 182.324 168.57 182.949 168.57 183.621 C 168.57 184.449 167.992 185.059 167.039 186.012 L 166.039 187.059 C 165.945 187.137 165.945 187.152 165.945 187.355 L 169.086 187.355 Z M 169.32 185.934 "/>
<path d="M 181.145 181.938 C 181.145 181.719 180.941 181.719 180.785 181.719 L 174.254 181.719 C 174.098 181.719 173.895 181.719 173.895 181.938 C 173.895 182.156 174.098 182.156 174.27 182.156 L 180.785 182.156 C 180.941 182.156 181.145 182.156 181.145 181.938 Z M 181.145 184.047 C 181.145 183.828 180.941 183.828 180.785 183.828 L 174.27 183.828 C 174.098 183.828 173.895 183.828 173.895 184.047 C 173.895 184.266 174.098 184.266 174.254 184.266 L 180.785 184.266 C 180.941 184.266 181.145 184.266 181.145 184.047 Z M 181.145 184.047 "/>
<path d="M 188.414 188.344 C 188.414 188.297 188.414 188.281 188.227 188.094 C 186.867 186.719 186.523 184.656 186.523 183 C 186.523 181.094 186.93 179.203 188.273 177.828 C 188.414 177.703 188.414 177.688 188.414 177.641 C 188.414 177.578 188.367 177.547 188.305 177.547 C 188.195 177.547 187.211 178.281 186.57 179.672 C 186.008 180.859 185.883 182.078 185.883 183 C 185.883 183.844 186.008 185.156 186.602 186.391 C 187.258 187.734 188.195 188.438 188.305 188.438 C 188.367 188.438 188.414 188.406 188.414 188.344 Z M 188.414 188.344 "/>
<path d="M 194.48 184.156 C 194.48 184.047 194.371 184.047 194.34 184.047 C 194.23 184.047 194.23 184.094 194.184 184.25 C 194.012 184.953 193.809 185.594 193.355 185.594 C 193.074 185.594 193.027 185.312 193.027 185.094 C 193.027 184.859 193.059 184.766 193.184 184.297 L 193.418 183.312 L 193.809 181.781 C 193.887 181.469 193.887 181.453 193.887 181.406 C 193.887 181.219 193.762 181.109 193.574 181.109 C 193.309 181.109 193.137 181.359 193.105 181.594 C 192.918 181.188 192.605 180.891 192.105 180.891 C 190.824 180.891 189.48 182.5 189.48 184.094 C 189.48 185.125 190.074 185.844 190.934 185.844 C 191.152 185.844 191.699 185.797 192.34 185.016 C 192.434 185.484 192.824 185.844 193.34 185.844 C 193.715 185.844 193.965 185.594 194.152 185.234 C 194.34 184.844 194.48 184.156 194.48 184.156 Z M 192.949 182.281 L 192.402 184.422 C 192.34 184.625 192.34 184.641 192.184 184.828 C 191.699 185.422 191.262 185.594 190.949 185.594 C 190.402 185.594 190.246 185 190.246 184.578 C 190.246 184.031 190.605 182.688 190.855 182.188 C 191.199 181.547 191.684 181.141 192.121 181.141 C 192.824 181.141 192.98 182.031 192.98 182.094 C 192.98 182.156 192.965 182.234 192.949 182.281 Z M 192.949 182.281 "/>
<path d="M 197.031 185.703 C 197.031 184.984 196.75 184.562 196.328 184.562 C 195.969 184.562 195.75 184.828 195.75 185.141 C 195.75 185.438 195.969 185.719 196.328 185.719 C 196.453 185.719 196.594 185.672 196.703 185.578 C 196.75 185.562 196.766 185.547 196.766 185.547 C 196.766 185.547 196.781 185.562 196.781 185.703 C 196.781 186.516 196.406 187.172 196.047 187.531 C 195.922 187.656 195.922 187.672 195.922 187.703 C 195.922 187.781 195.984 187.828 196.031 187.828 C 196.156 187.828 197.031 186.984 197.031 185.703 Z M 197.031 185.703 "/>
<path d="M 204.676 182.234 C 204.676 181.359 204.629 180.484 204.238 179.672 C 203.738 178.625 202.848 178.453 202.379 178.453 C 201.738 178.453 200.941 178.734 200.488 179.75 C 200.145 180.5 200.082 181.359 200.082 182.234 C 200.082 183.047 200.129 184.031 200.582 184.859 C 201.051 185.734 201.848 185.953 202.379 185.953 C 202.957 185.953 203.801 185.734 204.27 184.688 C 204.629 183.938 204.676 183.094 204.676 182.234 Z M 203.77 182.094 C 203.77 182.922 203.77 183.656 203.645 184.359 C 203.488 185.391 202.863 185.719 202.379 185.719 C 201.957 185.719 201.301 185.453 201.113 184.406 C 200.988 183.75 200.988 182.734 200.988 182.094 C 200.988 181.406 200.988 180.688 201.082 180.094 C 201.285 178.797 202.098 178.688 202.379 178.688 C 202.738 178.688 203.457 178.891 203.66 179.969 C 203.77 180.578 203.77 181.406 203.77 182.094 Z M 203.77 182.094 "/>
<path d="M 208.27 183 C 208.27 182.141 208.145 180.828 207.551 179.594 C 206.895 178.25 205.957 177.547 205.848 177.547 C 205.785 177.547 205.738 177.578 205.738 177.641 C 205.738 177.688 205.738 177.703 205.941 177.906 C 207.004 178.984 207.629 180.719 207.629 183 C 207.629 184.859 207.223 186.781 205.879 188.156 C 205.738 188.281 205.738 188.297 205.738 188.344 C 205.738 188.406 205.785 188.438 205.848 188.438 C 205.957 188.438 206.941 187.703 207.582 186.312 C 208.129 185.125 208.27 183.906 208.27 183 Z M 208.27 183 "/>
<path d="M 7.219 182.75 C 7.219 182.156 6.922 181.984 6.75 181.984 C 6.469 181.984 6.203 182.281 6.203 182.516 C 6.203 182.656 6.266 182.719 6.359 182.812 C 6.484 182.938 6.75 183.219 6.75 183.734 C 6.75 184.109 6.438 185.172 6.156 185.734 C 5.875 186.312 5.484 186.688 4.953 186.688 C 4.438 186.688 4.141 186.359 4.141 185.75 C 4.141 185.438 4.219 185.094 4.266 184.953 L 4.719 183.109 C 4.781 182.875 4.891 182.469 4.891 182.406 C 4.891 182.203 4.734 182.109 4.578 182.109 C 4.438 182.109 4.25 182.203 4.172 182.422 C 4.141 182.5 3.625 184.578 3.547 184.859 C 3.469 185.188 3.453 185.391 3.453 185.578 C 3.453 185.703 3.453 185.719 3.469 185.781 C 3.203 186.359 2.891 186.688 2.453 186.688 C 1.578 186.688 1.578 185.891 1.578 185.703 C 1.578 185.344 1.641 184.922 2.156 183.578 C 2.266 183.25 2.344 183.109 2.344 182.891 C 2.344 182.391 1.984 181.984 1.438 181.984 C .406 181.984 0 183.578 0 183.672 C 0 183.781 .141 183.781 .141 183.781 C .25 183.781 .25 183.766 .312 183.578 C .609 182.562 1.031 182.234 1.406 182.234 C 1.516 182.234 1.688 182.25 1.688 182.594 C 1.688 182.859 1.562 183.172 1.484 183.359 C 1 184.641 .875 185.141 .875 185.562 C .875 186.547 1.609 186.938 2.422 186.938 C 2.609 186.938 3.125 186.938 3.562 186.172 C 3.844 186.859 4.594 186.938 4.922 186.938 C 5.734 186.938 6.219 186.25 6.5 185.594 C 6.875 184.734 7.219 183.281 7.219 182.75 Z M 7.219 182.75 "/>
<path d="M 11.059 188.449 L 11.059 188.184 L 10.777 188.184 C 10.027 188.184 9.996 188.09 9.996 187.793 L 9.996 183.371 C 9.996 183.152 9.98 183.152 9.762 183.152 C 9.434 183.465 9.012 183.652 8.262 183.652 L 8.262 183.918 C 8.48 183.918 8.902 183.918 9.371 183.715 L 9.371 187.793 C 9.371 188.09 9.34 188.184 8.59 188.184 L 8.309 188.184 L 8.309 188.449 C 8.637 188.418 9.324 188.418 9.684 188.418 C 10.043 188.418 10.73 188.418 11.059 188.449 Z M 11.059 188.449 "/>
<path d="M 23.117 183.031 C 23.117 182.812 22.914 182.812 22.758 182.812 L 16.227 182.812 C 16.07 182.812 15.867 182.812 15.867 183.031 C 15.867 183.25 16.07 183.25 16.242 183.25 L 22.758 183.25 C 22.914 183.25 23.117 183.25 23.117 183.031 Z M 23.117 185.141 C 23.117 184.922 22.914 184.922 22.758 184.922 L 16.242 184.922 C 16.07 184.922 15.867 184.922 15.867 185.141 C 15.867 185.359 16.07 185.359 16.227 185.359 L 22.758 185.359 C 22.914 185.359 23.117 185.359 23.117 185.141 Z M 23.117 185.141 "/>
<path d="M 30.387 189.438 C 30.387 189.391 30.387 189.375 30.199 189.188 C 28.84 187.812 28.496 185.75 28.496 184.094 C 28.496 182.188 28.902 180.297 30.246 178.922 C 30.387 178.797 30.387 178.781 30.387 178.734 C 30.387 178.672 30.34 178.641 30.277 178.641 C 30.168 178.641 29.184 179.375 28.543 180.766 C 27.98 181.953 27.855 183.172 27.855 184.094 C 27.855 184.938 27.98 186.25 28.574 187.484 C 29.23 188.828 30.168 189.531 30.277 189.531 C 30.34 189.531 30.387 189.5 30.387 189.438 Z M 30.387 189.438 "/>
<path d="M 36.035 183.328 C 36.035 182.453 35.988 181.578 35.598 180.766 C 35.098 179.719 34.207 179.547 33.738 179.547 C 33.098 179.547 32.301 179.828 31.848 180.844 C 31.504 181.594 31.441 182.453 31.441 183.328 C 31.441 184.141 31.488 185.125 31.941 185.953 C 32.41 186.828 33.207 187.047 33.738 187.047 C 34.316 187.047 35.16 186.828 35.629 185.781 C 35.988 185.031 36.035 184.188 36.035 183.328 Z M 35.129 183.188 C 35.129 184.016 35.129 184.75 35.004 185.453 C 34.848 186.484 34.223 186.812 33.738 186.812 C 33.316 186.812 32.66 186.547 32.473 185.5 C 32.348 184.844 32.348 183.828 32.348 183.188 C 32.348 182.5 32.348 181.781 32.441 181.188 C 32.645 179.891 33.457 179.781 33.738 179.781 C 34.098 179.781 34.816 179.984 35.02 181.062 C 35.129 181.672 35.129 182.5 35.129 183.188 Z M 35.129 183.188 "/>
<path d="M 38.691 186.797 C 38.691 186.078 38.41 185.656 37.988 185.656 C 37.629 185.656 37.41 185.922 37.41 186.234 C 37.41 186.531 37.629 186.812 37.988 186.812 C 38.113 186.812 38.254 186.766 38.363 186.672 C 38.41 186.656 38.426 186.641 38.426 186.641 C 38.426 186.641 38.441 186.656 38.441 186.797 C 38.441 187.609 38.066 188.266 37.707 188.625 C 37.582 188.75 37.582 188.766 37.582 188.797 C 37.582 188.875 37.645 188.922 37.691 188.922 C 37.816 188.922 38.691 188.078 38.691 186.797 Z M 38.691 186.797 "/>
<path d="M 46.336 183.328 C 46.336 182.453 46.289 181.578 45.898 180.766 C 45.398 179.719 44.508 179.547 44.039 179.547 C 43.398 179.547 42.602 179.828 42.148 180.844 C 41.805 181.594 41.742 182.453 41.742 183.328 C 41.742 184.141 41.789 185.125 42.242 185.953 C 42.711 186.828 43.508 187.047 44.039 187.047 C 44.617 187.047 45.461 186.828 45.93 185.781 C 46.289 185.031 46.336 184.188 46.336 183.328 Z M 45.43 183.188 C 45.43 184.016 45.43 184.75 45.305 185.453 C 45.148 186.484 44.523 186.812 44.039 186.812 C 43.617 186.812 42.961 186.547 42.773 185.5 C 42.648 184.844 42.648 183.828 42.648 183.188 C 42.648 182.5 42.648 181.781 42.742 181.188 C 42.945 179.891 43.758 179.781 44.039 179.781 C 44.398 179.781 45.117 179.984 45.32 181.062 C 45.43 181.672 45.43 182.5 45.43 183.188 Z M 45.43 183.188 "/>
<path d="M 49.93 184.094 C 49.93 183.234 49.805 181.922 49.211 180.688 C 48.555 179.344 47.617 178.641 47.508 178.641 C 47.445 178.641 47.398 178.672 47.398 178.734 C 47.398 178.781 47.398 178.797 47.602 179 C 48.664 180.078 49.289 181.812 49.289 184.094 C 49.289 185.953 48.883 187.875 47.539 189.25 C 47.398 189.375 47.398 189.391 47.398 189.438 C 47.398 189.5 47.445 189.531 47.508 189.531 C 47.617 189.531 48.602 188.797 49.242 187.406 C 49.789 186.219 49.93 185 49.93 184.094 Z M 49.93 184.094 "/>
<path d="M 8.039 4.109 C 8.039 3.516 7.742 3.344 7.57 3.344 C 7.289 3.344 7.023 3.641 7.023 3.875 C 7.023 4.016 7.086 4.078 7.18 4.172 C 7.305 4.297 7.57 4.578 7.57 5.094 C 7.57 5.469 7.258 6.531 6.977 7.094 C 6.695 7.672 6.305 8.047 5.773 8.047 C 5.258 8.047 4.961 7.719 4.961 7.109 C 4.961 6.797 5.039 6.453 5.086 6.312 L 5.539 4.469 C 5.602 4.234 5.711 3.828 5.711 3.766 C 5.711 3.562 5.555 3.469 5.398 3.469 C 5.258 3.469 5.07 3.562 4.992 3.781 C 4.961 3.859 4.445 5.938 4.367 6.219 C 4.289 6.547 4.273 6.75 4.273 6.938 C 4.273 7.062 4.273 7.078 4.289 7.141 C 4.023 7.719 3.711 8.047 3.273 8.047 C 2.398 8.047 2.398 7.25 2.398 7.062 C 2.398 6.703 2.461 6.281 2.977 4.938 C 3.086 4.609 3.164 4.469 3.164 4.25 C 3.164 3.75 2.805 3.344 2.258 3.344 C 1.227 3.344 .82 4.938 .82 5.031 C .82 5.141 .961 5.141 .961 5.141 C 1.07 5.141 1.07 5.125 1.133 4.938 C 1.43 3.922 1.852 3.594 2.227 3.594 C 2.336 3.594 2.508 3.609 2.508 3.953 C 2.508 4.219 2.383 4.531 2.305 4.719 C 1.82 6 1.695 6.5 1.695 6.922 C 1.695 7.906 2.43 8.297 3.242 8.297 C 3.43 8.297 3.945 8.297 4.383 7.531 C 4.664 8.219 5.414 8.297 5.742 8.297 C 6.555 8.297 7.039 7.609 7.32 6.953 C 7.695 6.094 8.039 4.641 8.039 4.109 Z M 8.039 4.109 "/>
<path d="M 12.301 8.496 L 12.301 8.246 L 11.457 8.246 L 11.457 4.652 C 11.457 4.496 11.457 4.434 11.285 4.434 C 11.191 4.434 11.176 4.434 11.098 4.543 L 8.551 8.246 L 8.551 8.496 L 10.801 8.496 L 10.801 9.168 C 10.801 9.465 10.785 9.543 10.16 9.543 L 9.988 9.543 L 9.988 9.809 L 11.129 9.777 L 12.27 9.809 L 12.27 9.543 L 12.098 9.543 C 11.473 9.543 11.457 9.465 11.457 9.168 L 11.457 8.496 Z M 10.863 8.246 L 8.832 8.246 L 10.863 5.293 Z M 10.863 8.246 "/>
<path d="M 23.941 4.391 C 23.941 4.172 23.738 4.172 23.582 4.172 L 17.051 4.172 C 16.895 4.172 16.691 4.172 16.691 4.391 C 16.691 4.609 16.895 4.609 17.066 4.609 L 23.582 4.609 C 23.738 4.609 23.941 4.609 23.941 4.391 Z M 23.941 6.5 C 23.941 6.281 23.738 6.281 23.582 6.281 L 17.066 6.281 C 16.895 6.281 16.691 6.281 16.691 6.5 C 16.691 6.719 16.895 6.719 17.051 6.719 L 23.582 6.719 C 23.738 6.719 23.941 6.719 23.941 6.5 Z M 23.941 6.5 "/>
<path d="M 31.207 10.797 C 31.207 10.75 31.207 10.734 31.02 10.547 C 29.66 9.172 29.316 7.109 29.316 5.453 C 29.316 3.547 29.723 1.656 31.066 .281 C 31.207 .156 31.207 .141 31.207 .094 C 31.207 .031 31.16 0 31.098 0 C 30.988 0 30.004 .734 29.363 2.125 C 28.801 3.312 28.676 4.531 28.676 5.453 C 28.676 6.297 28.801 7.609 29.395 8.844 C 30.051 10.188 30.988 10.891 31.098 10.891 C 31.16 10.891 31.207 10.859 31.207 10.797 Z M 31.207 10.797 "/>
<path d="M 36.855 4.688 C 36.855 3.812 36.809 2.938 36.418 2.125 C 35.918 1.078 35.027 .906 34.559 .906 C 33.918 .906 33.121 1.188 32.668 2.203 C 32.324 2.953 32.262 3.812 32.262 4.688 C 32.262 5.5 32.309 6.484 32.762 7.312 C 33.23 8.188 34.027 8.406 34.559 8.406 C 35.137 8.406 35.98 8.188 36.449 7.141 C 36.809 6.391 36.855 5.547 36.855 4.688 Z M 35.949 4.547 C 35.949 5.375 35.949 6.109 35.824 6.812 C 35.668 7.844 35.043 8.172 34.559 8.172 C 34.137 8.172 33.48 7.906 33.293 6.859 C 33.168 6.203 33.168 5.188 33.168 4.547 C 33.168 3.859 33.168 3.141 33.262 2.547 C 33.465 1.25 34.277 1.141 34.559 1.141 C 34.918 1.141 35.637 1.344 35.84 2.422 C 35.949 3.031 35.949 3.859 35.949 4.547 Z M 35.949 4.547 "/>
<path d="M 39.512 8.156 C 39.512 7.438 39.23 7.016 38.809 7.016 C 38.449 7.016 38.23 7.281 38.23 7.594 C 38.23 7.891 38.449 8.172 38.809 8.172 C 38.934 8.172 39.074 8.125 39.184 8.031 C 39.23 8.016 39.246 8 39.246 8 C 39.246 8 39.262 8.016 39.262 8.156 C 39.262 8.969 38.887 9.625 38.527 9.984 C 38.402 10.109 38.402 10.125 38.402 10.156 C 38.402 10.234 38.465 10.281 38.512 10.281 C 38.637 10.281 39.512 9.438 39.512 8.156 Z M 39.512 8.156 "/>
<path d="M 46.676 5.094 C 46.676 4.109 46.098 3.344 45.223 3.344 C 44.723 3.344 44.27 3.672 43.941 4 L 44.754 .719 C 44.754 .719 44.754 .609 44.613 .609 C 44.363 .609 43.566 .688 43.285 .719 C 43.191 .719 43.066 .734 43.066 .938 C 43.066 1.062 43.176 1.062 43.332 1.062 C 43.863 1.062 43.879 1.141 43.879 1.25 C 43.879 1.328 43.785 1.688 43.723 1.922 L 42.832 5.484 C 42.707 6.016 42.66 6.203 42.66 6.578 C 42.66 7.609 43.238 8.297 44.035 8.297 C 45.332 8.297 46.676 6.672 46.676 5.094 Z M 45.332 6.922 C 44.973 7.656 44.473 8.047 44.035 8.047 C 43.676 8.047 43.316 7.75 43.316 6.953 C 43.316 6.75 43.316 6.531 43.488 5.844 L 43.723 4.844 C 43.785 4.609 43.785 4.578 43.895 4.469 C 44.426 3.75 44.91 3.594 45.191 3.594 C 45.598 3.594 45.879 3.922 45.879 4.609 C 45.879 5.266 45.52 6.516 45.332 6.922 Z M 45.332 6.922 "/>
<path d="M 49.98 5.453 C 49.98 4.594 49.855 3.281 49.262 2.047 C 48.605 .703 47.668 0 47.559 0 C 47.496 0 47.449 .031 47.449 .094 C 47.449 .141 47.449 .156 47.652 .359 C 48.715 1.438 49.34 3.172 49.34 5.453 C 49.34 7.312 48.934 9.234 47.59 10.609 C 47.449 10.734 47.449 10.75 47.449 10.797 C 47.449 10.859 47.496 10.891 47.559 10.891 C 47.668 10.891 48.652 10.156 49.293 8.766 C 49.84 7.578 49.98 6.359 49.98 5.453 Z M 49.98 5.453 "/>
<path d="M 74.164 140.703 L 74.461 138.812 C 74.477 138.766 74.477 138.656 74.477 138.625 C 74.477 138.5 74.367 138.5 74.195 138.5 L 68.133 138.5 C 67.867 138.5 67.867 138.516 67.789 138.719 L 67.133 140.641 C 67.117 140.672 67.07 140.844 67.07 140.844 C 67.07 140.906 67.117 140.969 67.195 140.969 C 67.305 140.969 67.32 140.906 67.383 140.734 C 67.977 139.047 68.258 138.844 69.867 138.844 L 70.289 138.844 C 70.602 138.844 70.602 138.891 70.602 138.969 C 70.602 139.047 70.57 139.172 70.555 139.203 L 69.102 145.031 C 68.992 145.438 68.961 145.547 67.805 145.547 C 67.398 145.547 67.336 145.547 67.336 145.766 C 67.336 145.891 67.461 145.891 67.523 145.891 C 67.82 145.891 68.117 145.875 68.414 145.875 L 69.352 145.859 L 70.258 145.875 C 70.57 145.875 70.898 145.891 71.195 145.891 C 71.305 145.891 71.445 145.891 71.445 145.672 C 71.445 145.547 71.352 145.547 71.07 145.547 C 70.789 145.547 70.648 145.547 70.367 145.531 C 70.055 145.5 69.961 145.469 69.961 145.297 C 69.961 145.297 69.961 145.219 70.008 145.062 L 71.461 139.266 C 71.539 138.969 71.586 138.906 71.711 138.859 C 71.805 138.844 72.164 138.844 72.398 138.844 C 73.508 138.844 73.992 138.891 73.992 139.734 C 73.992 139.906 73.945 140.328 73.898 140.609 C 73.898 140.656 73.867 140.781 73.867 140.812 C 73.867 140.891 73.898 140.969 74.008 140.969 C 74.117 140.969 74.148 140.875 74.164 140.703 Z M 74.164 140.703 "/>
<path d="M 76.742 147.527 L 76.742 147.262 L 76.461 147.262 C 75.711 147.262 75.68 147.168 75.68 146.871 L 75.68 142.449 C 75.68 142.23 75.664 142.23 75.445 142.23 C 75.117 142.543 74.695 142.73 73.945 142.73 L 73.945 142.996 C 74.164 142.996 74.586 142.996 75.055 142.793 L 75.055 146.871 C 75.055 147.168 75.023 147.262 74.273 147.262 L 73.992 147.262 L 73.992 147.527 C 74.32 147.496 75.008 147.496 75.367 147.496 C 75.727 147.496 76.414 147.496 76.742 147.527 Z M 76.742 147.527 "/>
<path d="M 124.469 113.637 L 124.766 111.746 C 124.781 111.699 124.781 111.59 124.781 111.559 C 124.781 111.434 124.672 111.434 124.5 111.434 L 118.438 111.434 C 118.172 111.434 118.172 111.449 118.094 111.652 L 117.438 113.574 C 117.422 113.605 117.375 113.777 117.375 113.777 C 117.375 113.84 117.422 113.902 117.5 113.902 C 117.609 113.902 117.625 113.84 117.688 113.668 C 118.281 111.98 118.562 111.777 120.172 111.777 L 120.594 111.777 C 120.906 111.777 120.906 111.824 120.906 111.902 C 120.906 111.98 120.875 112.105 120.859 112.137 L 119.406 117.965 C 119.297 118.371 119.266 118.48 118.109 118.48 C 117.703 118.48 117.641 118.48 117.641 118.699 C 117.641 118.824 117.766 118.824 117.828 118.824 C 118.125 118.824 118.422 118.809 118.719 118.809 L 119.656 118.793 L 120.562 118.809 C 120.875 118.809 121.203 118.824 121.5 118.824 C 121.609 118.824 121.75 118.824 121.75 118.605 C 121.75 118.48 121.656 118.48 121.375 118.48 C 121.094 118.48 120.953 118.48 120.672 118.465 C 120.359 118.434 120.266 118.402 120.266 118.23 C 120.266 118.23 120.266 118.152 120.312 117.996 L 121.766 112.199 C 121.844 111.902 121.891 111.84 122.016 111.793 C 122.109 111.777 122.469 111.777 122.703 111.777 C 123.812 111.777 124.297 111.824 124.297 112.668 C 124.297 112.84 124.25 113.262 124.203 113.543 C 124.203 113.59 124.172 113.715 124.172 113.746 C 124.172 113.824 124.203 113.902 124.312 113.902 C 124.422 113.902 124.453 113.809 124.469 113.637 Z M 124.469 113.637 "/>
<path d="M 127.281 119.039 L 127.031 119.039 C 127.016 119.195 126.953 119.586 126.859 119.742 C 126.812 119.805 126.203 119.805 126.078 119.805 L 124.656 119.805 L 125.734 118.836 C 125.859 118.711 126.188 118.445 126.328 118.336 C 126.812 117.883 127.281 117.445 127.281 116.727 C 127.281 115.773 126.484 115.164 125.5 115.164 C 124.531 115.164 123.906 115.883 123.906 116.602 C 123.906 116.992 124.219 117.039 124.328 117.039 C 124.5 117.039 124.75 116.93 124.75 116.617 C 124.75 116.211 124.344 116.211 124.25 116.211 C 124.484 115.617 125.016 115.43 125.406 115.43 C 126.141 115.43 126.531 116.055 126.531 116.727 C 126.531 117.555 125.953 118.164 125 119.117 L 124 120.164 C 123.906 120.242 123.906 120.258 123.906 120.461 L 127.047 120.461 Z M 127.281 119.039 "/>
<path d="M 72.25 45.012 L 72.547 43.121 C 72.562 43.074 72.562 42.965 72.562 42.934 C 72.562 42.809 72.453 42.809 72.281 42.809 L 66.219 42.809 C 65.953 42.809 65.953 42.824 65.875 43.027 L 65.219 44.949 C 65.203 44.98 65.156 45.152 65.156 45.152 C 65.156 45.215 65.203 45.277 65.281 45.277 C 65.391 45.277 65.406 45.215 65.469 45.043 C 66.062 43.355 66.344 43.152 67.953 43.152 L 68.375 43.152 C 68.688 43.152 68.688 43.199 68.688 43.277 C 68.688 43.355 68.656 43.48 68.641 43.512 L 67.188 49.34 C 67.078 49.746 67.047 49.855 65.891 49.855 C 65.484 49.855 65.422 49.855 65.422 50.074 C 65.422 50.199 65.547 50.199 65.609 50.199 C 65.906 50.199 66.203 50.184 66.5 50.184 L 67.438 50.168 L 68.344 50.184 C 68.656 50.184 68.984 50.199 69.281 50.199 C 69.391 50.199 69.531 50.199 69.531 49.98 C 69.531 49.855 69.438 49.855 69.156 49.855 C 68.875 49.855 68.734 49.855 68.453 49.84 C 68.141 49.809 68.047 49.777 68.047 49.605 C 68.047 49.605 68.047 49.527 68.094 49.371 L 69.547 43.574 C 69.625 43.277 69.672 43.215 69.797 43.168 C 69.891 43.152 70.25 43.152 70.484 43.152 C 71.594 43.152 72.078 43.199 72.078 44.043 C 72.078 44.215 72.031 44.637 71.984 44.918 C 71.984 44.965 71.953 45.09 71.953 45.121 C 71.953 45.199 71.984 45.277 72.094 45.277 C 72.203 45.277 72.234 45.184 72.25 45.012 Z M 72.25 45.012 "/>
<path d="M 75.141 50.477 C 75.141 49.805 74.609 49.211 73.797 49.023 C 74.422 48.805 74.906 48.273 74.906 47.633 C 74.906 46.992 74.188 46.539 73.359 46.539 C 72.5 46.539 71.859 46.992 71.859 47.602 C 71.859 47.898 72.047 48.023 72.266 48.023 C 72.516 48.023 72.672 47.852 72.672 47.617 C 72.672 47.32 72.406 47.211 72.234 47.211 C 72.578 46.773 73.188 46.742 73.328 46.742 C 73.531 46.742 74.141 46.805 74.141 47.633 C 74.141 48.18 73.906 48.523 73.797 48.648 C 73.562 48.898 73.375 48.914 72.891 48.945 C 72.734 48.945 72.672 48.961 72.672 49.07 C 72.672 49.18 72.75 49.18 72.891 49.18 L 73.281 49.18 C 73.906 49.18 74.312 49.633 74.312 50.477 C 74.312 51.477 73.75 51.758 73.328 51.758 C 72.891 51.758 72.281 51.602 72 51.18 C 72.297 51.18 72.5 50.992 72.5 50.742 C 72.5 50.477 72.312 50.305 72.047 50.305 C 71.844 50.305 71.609 50.43 71.609 50.758 C 71.609 51.508 72.422 52.008 73.344 52.008 C 74.391 52.008 75.141 51.273 75.141 50.477 Z M 75.141 50.477 "/>
<path d="M 23.586 88.758 L 23.883 86.867 C 23.898 86.82 23.898 86.711 23.898 86.68 C 23.898 86.555 23.789 86.555 23.617 86.555 L 17.555 86.555 C 17.289 86.555 17.289 86.57 17.211 86.773 L 16.555 88.695 C 16.539 88.727 16.492 88.898 16.492 88.898 C 16.492 88.961 16.539 89.023 16.617 89.023 C 16.727 89.023 16.742 88.961 16.805 88.789 C 17.398 87.102 17.68 86.898 19.289 86.898 L 19.711 86.898 C 20.023 86.898 20.023 86.945 20.023 87.023 C 20.023 87.102 19.992 87.227 19.977 87.258 L 18.523 93.086 C 18.414 93.492 18.383 93.602 17.227 93.602 C 16.82 93.602 16.758 93.602 16.758 93.82 C 16.758 93.945 16.883 93.945 16.945 93.945 C 17.242 93.945 17.539 93.93 17.836 93.93 L 18.773 93.914 L 19.68 93.93 C 19.992 93.93 20.32 93.945 20.617 93.945 C 20.727 93.945 20.867 93.945 20.867 93.727 C 20.867 93.602 20.773 93.602 20.492 93.602 C 20.211 93.602 20.07 93.602 19.789 93.586 C 19.477 93.555 19.383 93.523 19.383 93.352 C 19.383 93.352 19.383 93.273 19.43 93.117 L 20.883 87.32 C 20.961 87.023 21.008 86.961 21.133 86.914 C 21.227 86.898 21.586 86.898 21.82 86.898 C 22.93 86.898 23.414 86.945 23.414 87.789 C 23.414 87.961 23.367 88.383 23.32 88.664 C 23.32 88.711 23.289 88.836 23.289 88.867 C 23.289 88.945 23.32 89.023 23.43 89.023 C 23.539 89.023 23.57 88.93 23.586 88.758 Z M 23.586 88.758 "/>
<path d="M 26.586 94.27 L 26.586 94.02 L 25.742 94.02 L 25.742 90.426 C 25.742 90.27 25.742 90.207 25.57 90.207 C 25.477 90.207 25.461 90.207 25.383 90.316 L 22.836 94.02 L 22.836 94.27 L 25.086 94.27 L 25.086 94.941 C 25.086 95.238 25.07 95.316 24.445 95.316 L 24.273 95.316 L 24.273 95.582 L 25.414 95.551 L 26.555 95.582 L 26.555 95.316 L 26.383 95.316 C 25.758 95.316 25.742 95.238 25.742 94.941 L 25.742 94.27 Z M 25.148 94.02 L 23.117 94.02 L 25.148 91.066 Z M 25.148 94.02 "/>
</g>
</g>
</svg>
