<?xml version="1.0" encoding="utf-8" standalone="no"?>
<!DOCTYPE svg PUBLIC "-//W3C//DTD SVG 1.1//EN"
  "http://www.w3.org/Graphics/SVG/1.1/DTD/svg11.dtd">
<svg xmlns:xlink="http://www.w3.org/1999/xlink" width="648pt" height="252pt" viewBox="0 0 648 252" xmlns="http://www.w3.org/2000/svg" version="1.1">
 <metadata>
  <rdf:RDF xmlns:dc="http://purl.org/dc/elements/1.1/" xmlns:cc="http://creativecommons.org/ns#" xmlns:rdf="http://www.w3.org/1999/02/22-rdf-syntax-ns#">
   <cc:Work>
    <dc:type rdf:resource="http://purl.org/dc/dcmitype/StillImage"/>
    <dc:date>2022-10-28T13:27:25.482716</dc:date>
    <dc:format>image/svg+xml</dc:format>
    <dc:creator>
     <cc:Agent>
      <dc:title>Matplotlib v3.5.1, https://matplotlib.org/</dc:title>
     </cc:Agent>
    </dc:creator>
   </cc:Work>
  </rdf:RDF>
 </metadata>
 <defs>
  <style type="text/css">*{stroke-linejoin: round; stroke-linecap: butt}</style>
 </defs>
 <g id="figure_1">
  <g id="patch_1">
   <path d="M 0 252 
L 648 252 
L 648 0 
L 0 0 
z
" style="fill: #ffffff"/>
  </g>
  <g id="patch_2">
   <path d="M 2.834646 231.165354 
L 213.165354 231.165354 
L 213.165354 20.834646 
L 2.834646 20.834646 
z
" style="fill: #ffffff"/>
  </g>
  <g id="pane3d_1">
   <g id="patch_3">
    <path d="M 18.39794 179.498425 
L 86.071913 120.891045 
L 86.071913 32.979975 
L 18.39794 91.587355 
" style="fill: #f2f2f2; opacity: 0.5; stroke: #f2f2f2; stroke-linejoin: miter"/>
   </g>
  </g>
  <g id="pane3d_2">
   <g id="patch_4">
    <path d="M 86.071913 120.891045 
L 203.286674 154.728031 
L 203.286674 66.816961 
L 86.071913 32.979975 
" style="fill: #e6e6e6; opacity: 0.5; stroke: #e6e6e6; stroke-linejoin: miter"/>
   </g>
  </g>
  <g id="pane3d_3">
   <g id="patch_5">
    <path d="M 18.39794 179.498425 
L 135.6127 213.335412 
L 203.286674 154.728031 
L 86.071913 120.891045 
" style="fill: #ececec; opacity: 0.5; stroke: #ececec; stroke-linejoin: miter"/>
   </g>
  </g>
  <g id="axis3d_1">
   <g id="line2d_1">
    <path d="M 18.39794 179.498425 
L 135.6127 213.335412 
" style="fill: none; stroke: #000000; stroke-width: 0.8; stroke-linecap: square"/>
   </g>
  </g>
  <g id="axis3d_2">
   <g id="line2d_2">
    <path d="M 203.286674 154.728031 
L 135.6127 213.335412 
" style="fill: none; stroke: #000000; stroke-width: 0.8; stroke-linecap: square"/>
   </g>
  </g>
  <g id="axis3d_3">
   <g id="line2d_3">
    <path d="M 203.286674 154.728031 
L 203.286674 66.816961 
" style="fill: none; stroke: #000000; stroke-width: 0.8; stroke-linecap: square"/>
   </g>
  </g>
  <g id="axes_1">
   <g id="Poly3DCollection_1">
    <path d="M 22.095715 177.244796 
L 134.621885 209.728303 
L 87.062729 120.981711 
z
" clip-path="url(#p13dd9d1632)" style="fill: #440154; stroke: #440154"/>
   </g>
   <g id="Poly3DCollection_2">
    <path d="M 22.095715 92.850168 
L 134.621885 209.728303 
L 87.062729 120.981711 
z
" clip-path="url(#p13dd9d1632)" style="fill: #31688e; stroke: #440154"/>
   </g>
  </g>
  <g id="patch_6">
   <path d="M 218.834646 231.165354 
L 429.165354 231.165354 
L 429.165354 20.834646 
L 218.834646 20.834646 
z
" style="fill: #ffffff"/>
  </g>
  <g id="pane3d_4">
   <g id="patch_7">
    <path d="M 234.39794 179.498425 
L 302.071913 120.891045 
L 302.071913 32.979975 
L 234.39794 91.587355 
" style="fill: #f2f2f2; opacity: 0.5; stroke: #f2f2f2; stroke-linejoin: miter"/>
   </g>
  </g>
  <g id="pane3d_5">
   <g id="patch_8">
    <path d="M 302.071913 120.891045 
L 419.286674 154.728031 
L 419.286674 66.816961 
L 302.071913 32.979975 
" style="fill: #e6e6e6; opacity: 0.5; stroke: #e6e6e6; stroke-linejoin: miter"/>
   </g>
  </g>
  <g id="pane3d_6">
   <g id="patch_9">
    <path d="M 234.39794 179.498425 
L 351.6127 213.335412 
L 419.286674 154.728031 
L 302.071913 120.891045 
" style="fill: #ececec; opacity: 0.5; stroke: #ececec; stroke-linejoin: miter"/>
   </g>
  </g>
  <g id="axis3d_4">
   <g id="line2d_4">
    <path d="M 234.39794 179.498425 
L 351.6127 213.335412 
" style="fill: none; stroke: #000000; stroke-width: 0.8; stroke-linecap: square"/>
   </g>
  </g>
  <g id="axis3d_5">
   <g id="line2d_5">
    <path d="M 419.286674 154.728031 
L 351.6127 213.335412 
" style="fill: none; stroke: #000000; stroke-width: 0.8; stroke-linecap: square"/>
   </g>
  </g>
  <g id="axis3d_6">
   <g id="line2d_6">
    <path d="M 419.286674 154.728031 
L 419.286674 66.816961 
" style="fill: none; stroke: #000000; stroke-width: 0.8; stroke-linecap: square"/>
   </g>
  </g>
  <g id="axes_2">
   <g id="Poly3DCollection_3">
    <path d="M 238.095715 177.244796 
L 350.621885 209.728303 
L 303.062729 120.981711 
z
" clip-path="url(#p43b3e725a0)" style="fill: #440154; stroke: #440154"/>
   </g>
   <g id="Poly3DCollection_4">
    <path d="M 238.095715 177.244796 
L 350.621885 125.333676 
L 303.062729 120.981711 
z
" clip-path="url(#p43b3e725a0)" style="fill: #31688e; stroke: #440154"/>
   </g>
  </g>
  <g id="patch_10">
   <path d="M 434.834646 231.165354 
L 645.165354 231.165354 
L 645.165354 20.834646 
L 434.834646 20.834646 
z
" style="fill: #ffffff"/>
  </g>
  <g id="pane3d_7">
   <g id="patch_11">
    <path d="M 450.39794 179.498425 
L 518.071913 120.891045 
L 518.071913 32.979975 
L 450.39794 91.587355 
" style="fill: #f2f2f2; opacity: 0.5; stroke: #f2f2f2; stroke-linejoin: miter"/>
   </g>
  </g>
  <g id="pane3d_8">
   <g id="patch_12">
    <path d="M 518.071913 120.891045 
L 635.286674 154.728031 
L 635.286674 66.816961 
L 518.071913 32.979975 
" style="fill: #e6e6e6; opacity: 0.5; stroke: #e6e6e6; stroke-linejoin: miter"/>
   </g>
  </g>
  <g id="pane3d_9">
   <g id="patch_13">
    <path d="M 450.39794 179.498425 
L 567.6127 213.335412 
L 635.286674 154.728031 
L 518.071913 120.891045 
" style="fill: #ececec; opacity: 0.5; stroke: #ececec; stroke-linejoin: miter"/>
   </g>
  </g>
  <g id="axis3d_7">
   <g id="line2d_7">
    <path d="M 450.39794 179.498425 
L 567.6127 213.335412 
" style="fill: none; stroke: #000000; stroke-width: 0.8; stroke-linecap: square"/>
   </g>
  </g>
  <g id="axis3d_8">
   <g id="line2d_8">
    <path d="M 635.286674 154.728031 
L 567.6127 213.335412 
" style="fill: none; stroke: #000000; stroke-width: 0.8; stroke-linecap: square"/>
   </g>
  </g>
  <g id="axis3d_9">
   <g id="line2d_9">
    <path d="M 635.286674 154.728031 
L 635.286674 66.816961 
" style="fill: none; stroke: #000000; stroke-width: 0.8; stroke-linecap: square"/>
   </g>
  </g>
  <g id="axes_3">
   <g id="Poly3DCollection_5">
    <path d="M 454.095715 177.244796 
L 566.621885 209.728303 
L 519.062729 120.981711 
z
" clip-path="url(#pa00f3a04b1)" style="fill: #440154; stroke: #440154"/>
   </g>
   <g id="Poly3DCollection_6">
    <path d="M 454.095715 177.244796 
L 566.621885 209.728303 
L 519.062729 36.587083 
z
" clip-path="url(#pa00f3a04b1)" style="fill: #31688e; stroke: #440154"/>
   </g>
  </g>
 </g>
 <defs>
  <clipPath id="p13dd9d1632">
   <rect x="2.834646" y="20.834646" width="210.330709" height="210.330709"/>
  </clipPath>
  <clipPath id="p43b3e725a0">
   <rect x="218.834646" y="20.834646" width="210.330709" height="210.330709"/>
  </clipPath>
  <clipPath id="pa00f3a04b1">
   <rect x="434.834646" y="20.834646" width="210.330709" height="210.330709"/>
  </clipPath>
 </defs>
</svg>
