<?xml version="1.0" encoding="UTF-8" standalone="no"?>
<!DOCTYPE svg PUBLIC "-//W3C//DTD SVG 1.1//EN" "http://www.w3.org/Graphics/SVG/1.1/DTD/svg11.dtd">
<svg xmlns="http://www.w3.org/2000/svg" xmlns:xlink="http://www.w3.org/1999/xlink" version="1.1" width="372.74839pt" height="159.98763pt" viewBox="0 0 372.74839 159.98763">
<g enable-background="new">
<g>
<clipPath id="cp0">
<path d="M 0 .305 L 373 .305 L 373 160 L 0 160 Z "/>
</clipPath>
<g clip-path="url(#cp0)">
<clipPath id="cp1">
<path d="M 0 0 L 373 0 L 373 160 L 0 160 Z "/>
</clipPath>
<g clip-path="url(#cp1)">
<clipPath id="cp2">
<path d="M .535 7.305 L 139.65201 7.305 L 139.65201 153.305 L .535 153.305 Z "/>
</clipPath>
<g clip-path="url(#cp2)">
<clipPath id="cp3">
<path d="M 0 0 L 373 0 L 373 160 L 0 160 Z "/>
</clipPath>
<g clip-path="url(#cp3)">
<path stroke-width="1.192765" stroke-linecap="butt" stroke-miterlimit="4" stroke-linejoin="miter" fill="none" stroke="#000000" d="M 132.641 145.887 L 1.191 14.445 L 1.191 145.855 Z M 132.641 145.887 "/>
</g>
</g>
</g>
<path d="M 136.688 152.293 C 136.688 151.715 136.406 151.527 136.203 151.527 C 135.938 151.527 135.672 151.824 135.672 152.059 C 135.672 152.199 135.719 152.262 135.844 152.387 C 136.078 152.605 136.219 152.887 136.219 153.277 C 136.219 153.73 135.547 156.23 134.266 156.23 C 133.719 156.23 133.469 155.855 133.469 155.293 C 133.469 154.684 133.766 153.887 134.094 152.98 C 134.172 152.793 134.234 152.637 134.234 152.434 C 134.234 151.934 133.875 151.527 133.328 151.527 C 132.312 151.527 131.891 153.121 131.891 153.215 C 131.891 153.324 132.031 153.324 132.031 153.324 C 132.141 153.324 132.141 153.309 132.203 153.121 C 132.516 152.027 132.984 151.777 133.297 151.777 C 133.391 151.777 133.578 151.777 133.578 152.121 C 133.578 152.402 133.469 152.684 133.391 152.887 C 132.906 154.152 132.766 154.652 132.766 155.121 C 132.766 156.309 133.734 156.48 134.234 156.48 C 136.062 156.48 136.688 152.871 136.688 152.293 Z M 136.688 152.293 "/>
<path d="M 140.664 156.57 L 140.414 156.57 C 140.398 156.727 140.336 157.117 140.242 157.273 C 140.195 157.336 139.586 157.336 139.461 157.336 L 138.039 157.336 L 139.117 156.367 C 139.242 156.242 139.57 155.977 139.711 155.867 C 140.195 155.414 140.664 154.977 140.664 154.258 C 140.664 153.305 139.867 152.695 138.883 152.695 C 137.914 152.695 137.289 153.414 137.289 154.133 C 137.289 154.523 137.602 154.57 137.711 154.57 C 137.883 154.57 138.133 154.461 138.133 154.148 C 138.133 153.742 137.727 153.742 137.633 153.742 C 137.867 153.148 138.398 152.961 138.789 152.961 C 139.523 152.961 139.914 153.586 139.914 154.258 C 139.914 155.086 139.336 155.695 138.383 156.648 L 137.383 157.695 C 137.289 157.773 137.289 157.789 137.289 157.992 L 140.43 157.992 Z M 140.664 156.57 "/>
<path d="M 152.488 152.574 C 152.488 152.355 152.285 152.355 152.129 152.355 L 145.598 152.355 C 145.441 152.355 145.238 152.355 145.238 152.574 C 145.238 152.793 145.441 152.793 145.613 152.793 L 152.129 152.793 C 152.285 152.793 152.488 152.793 152.488 152.574 Z M 152.488 154.684 C 152.488 154.465 152.285 154.465 152.129 154.465 L 145.613 154.465 C 145.441 154.465 145.238 154.465 145.238 154.684 C 145.238 154.902 145.441 154.902 145.598 154.902 L 152.129 154.902 C 152.285 154.902 152.488 154.902 152.488 154.684 Z M 152.488 154.684 "/>
<path d="M 159.754 158.98 C 159.754 158.934 159.754 158.918 159.566 158.73 C 158.207 157.355 157.863 155.293 157.863 153.637 C 157.863 151.73 158.27 149.84 159.613 148.465 C 159.754 148.34 159.754 148.324 159.754 148.277 C 159.754 148.215 159.707 148.184 159.645 148.184 C 159.535 148.184 158.551 148.918 157.91 150.309 C 157.348 151.496 157.223 152.715 157.223 153.637 C 157.223 154.48 157.348 155.793 157.941 157.027 C 158.598 158.371 159.535 159.074 159.645 159.074 C 159.707 159.074 159.754 159.043 159.754 158.98 Z M 159.754 158.98 "/>
<path d="M 164.953 156.355 L 164.953 156.012 L 164.609 156.012 C 163.625 156.012 163.594 155.902 163.594 155.496 L 163.594 149.371 C 163.594 149.121 163.594 149.09 163.344 149.09 C 162.672 149.793 161.703 149.793 161.359 149.793 L 161.359 150.121 C 161.578 150.121 162.219 150.121 162.797 149.84 L 162.797 155.496 C 162.797 155.887 162.75 156.012 161.781 156.012 L 161.422 156.012 L 161.422 156.355 C 161.812 156.324 162.75 156.324 163.188 156.324 C 163.625 156.324 164.578 156.324 164.953 156.355 Z M 164.953 156.355 "/>
<path d="M 168.059 156.34 C 168.059 155.621 167.777 155.199 167.355 155.199 C 166.996 155.199 166.777 155.465 166.777 155.777 C 166.777 156.074 166.996 156.355 167.355 156.355 C 167.48 156.355 167.621 156.309 167.73 156.215 C 167.777 156.199 167.793 156.184 167.793 156.184 C 167.793 156.184 167.809 156.199 167.809 156.34 C 167.809 157.152 167.434 157.809 167.074 158.168 C 166.949 158.293 166.949 158.309 166.949 158.34 C 166.949 158.418 167.012 158.465 167.059 158.465 C 167.184 158.465 168.059 157.621 168.059 156.34 Z M 168.059 156.34 "/>
<path d="M 175.707 152.871 C 175.707 151.996 175.66 151.121 175.27 150.309 C 174.77 149.262 173.879 149.09 173.41 149.09 C 172.77 149.09 171.973 149.371 171.52 150.387 C 171.176 151.137 171.113 151.996 171.113 152.871 C 171.113 153.684 171.16 154.668 171.613 155.496 C 172.082 156.371 172.879 156.59 173.41 156.59 C 173.988 156.59 174.832 156.371 175.301 155.324 C 175.66 154.574 175.707 153.73 175.707 152.871 Z M 174.801 152.73 C 174.801 153.559 174.801 154.293 174.676 154.996 C 174.52 156.027 173.895 156.355 173.41 156.355 C 172.988 156.355 172.332 156.09 172.145 155.043 C 172.02 154.387 172.02 153.371 172.02 152.73 C 172.02 152.043 172.02 151.324 172.113 150.73 C 172.316 149.434 173.129 149.324 173.41 149.324 C 173.77 149.324 174.488 149.527 174.691 150.605 C 174.801 151.215 174.801 152.043 174.801 152.73 Z M 174.801 152.73 "/>
<path d="M 179.301 153.637 C 179.301 152.777 179.176 151.465 178.582 150.23 C 177.926 148.887 176.988 148.184 176.879 148.184 C 176.816 148.184 176.77 148.215 176.77 148.277 C 176.77 148.324 176.77 148.34 176.973 148.543 C 178.035 149.621 178.66 151.355 178.66 153.637 C 178.66 155.496 178.254 157.418 176.91 158.793 C 176.77 158.918 176.77 158.934 176.77 158.98 C 176.77 159.043 176.816 159.074 176.879 159.074 C 176.988 159.074 177.973 158.34 178.613 156.949 C 179.16 155.762 179.301 154.543 179.301 153.637 Z M 179.301 153.637 "/>
<path d="M 4.797 153.207 C 4.797 152.629 4.516 152.441 4.312 152.441 C 4.047 152.441 3.781 152.738 3.781 152.973 C 3.781 153.113 3.828 153.176 3.953 153.301 C 4.188 153.52 4.328 153.801 4.328 154.191 C 4.328 154.645 3.656 157.145 2.375 157.145 C 1.828 157.145 1.578 156.77 1.578 156.207 C 1.578 155.598 1.875 154.801 2.203 153.895 C 2.281 153.707 2.344 153.551 2.344 153.348 C 2.344 152.848 1.984 152.441 1.438 152.441 C .422 152.441 0 154.035 0 154.129 C 0 154.238 .141 154.238 .141 154.238 C .25 154.238 .25 154.223 .312 154.035 C .625 152.941 1.094 152.691 1.406 152.691 C 1.5 152.691 1.688 152.691 1.688 153.035 C 1.688 153.316 1.578 153.598 1.5 153.801 C 1.016 155.066 .875 155.566 .875 156.035 C .875 157.223 1.844 157.395 2.344 157.395 C 4.172 157.395 4.797 153.785 4.797 153.207 Z M 4.797 153.207 "/>
<path d="M 8.539 158.906 L 8.539 158.641 L 8.258 158.641 C 7.508 158.641 7.477 158.547 7.477 158.25 L 7.477 153.828 C 7.477 153.609 7.461 153.609 7.242 153.609 C 6.914 153.922 6.492 154.109 5.742 154.109 L 5.742 154.375 C 5.961 154.375 6.383 154.375 6.852 154.172 L 6.852 158.25 C 6.852 158.547 6.82 158.641 6.07 158.641 L 5.789 158.641 L 5.789 158.906 C 6.117 158.875 6.805 158.875 7.164 158.875 C 7.523 158.875 8.211 158.875 8.539 158.906 Z M 8.539 158.906 "/>
<path d="M 20.598 153.488 C 20.598 153.27 20.395 153.27 20.238 153.27 L 13.707 153.27 C 13.551 153.27 13.348 153.27 13.348 153.488 C 13.348 153.707 13.551 153.707 13.723 153.707 L 20.238 153.707 C 20.395 153.707 20.598 153.707 20.598 153.488 Z M 20.598 155.598 C 20.598 155.379 20.395 155.379 20.238 155.379 L 13.723 155.379 C 13.551 155.379 13.348 155.379 13.348 155.598 C 13.348 155.816 13.551 155.816 13.707 155.816 L 20.238 155.816 C 20.395 155.816 20.598 155.816 20.598 155.598 Z M 20.598 155.598 "/>
<path d="M 27.867 159.895 C 27.867 159.848 27.867 159.832 27.68 159.645 C 26.32 158.27 25.977 156.207 25.977 154.551 C 25.977 152.645 26.383 150.754 27.727 149.379 C 27.867 149.254 27.867 149.238 27.867 149.191 C 27.867 149.129 27.82 149.098 27.758 149.098 C 27.648 149.098 26.664 149.832 26.023 151.223 C 25.461 152.41 25.336 153.629 25.336 154.551 C 25.336 155.395 25.461 156.707 26.055 157.941 C 26.711 159.285 27.648 159.988 27.758 159.988 C 27.82 159.988 27.867 159.957 27.867 159.895 Z M 27.867 159.895 "/>
<path d="M 33.516 153.785 C 33.516 152.91 33.469 152.035 33.078 151.223 C 32.578 150.176 31.688 150.004 31.219 150.004 C 30.578 150.004 29.781 150.285 29.328 151.301 C 28.984 152.051 28.922 152.91 28.922 153.785 C 28.922 154.598 28.969 155.582 29.422 156.41 C 29.891 157.285 30.688 157.504 31.219 157.504 C 31.797 157.504 32.641 157.285 33.109 156.238 C 33.469 155.488 33.516 154.645 33.516 153.785 Z M 32.609 153.645 C 32.609 154.473 32.609 155.207 32.484 155.91 C 32.328 156.941 31.703 157.27 31.219 157.27 C 30.797 157.27 30.141 157.004 29.953 155.957 C 29.828 155.301 29.828 154.285 29.828 153.645 C 29.828 152.957 29.828 152.238 29.922 151.645 C 30.125 150.348 30.938 150.238 31.219 150.238 C 31.578 150.238 32.297 150.441 32.5 151.52 C 32.609 152.129 32.609 152.957 32.609 153.645 Z M 32.609 153.645 "/>
<path d="M 36.168 157.254 C 36.168 156.535 35.887 156.113 35.465 156.113 C 35.105 156.113 34.887 156.379 34.887 156.691 C 34.887 156.988 35.105 157.27 35.465 157.27 C 35.59 157.27 35.73 157.223 35.84 157.129 C 35.887 157.113 35.902 157.098 35.902 157.098 C 35.902 157.098 35.918 157.113 35.918 157.254 C 35.918 158.066 35.543 158.723 35.184 159.082 C 35.059 159.207 35.059 159.223 35.059 159.254 C 35.059 159.332 35.121 159.379 35.168 159.379 C 35.293 159.379 36.168 158.535 36.168 157.254 Z M 36.168 157.254 "/>
<path d="M 43.812 153.785 C 43.812 152.91 43.766 152.035 43.375 151.223 C 42.875 150.176 41.984 150.004 41.516 150.004 C 40.875 150.004 40.078 150.285 39.625 151.301 C 39.281 152.051 39.219 152.91 39.219 153.785 C 39.219 154.598 39.266 155.582 39.719 156.41 C 40.188 157.285 40.984 157.504 41.516 157.504 C 42.094 157.504 42.938 157.285 43.406 156.238 C 43.766 155.488 43.812 154.645 43.812 153.785 Z M 42.906 153.645 C 42.906 154.473 42.906 155.207 42.781 155.91 C 42.625 156.941 42 157.27 41.516 157.27 C 41.094 157.27 40.438 157.004 40.25 155.957 C 40.125 155.301 40.125 154.285 40.125 153.645 C 40.125 152.957 40.125 152.238 40.219 151.645 C 40.422 150.348 41.234 150.238 41.516 150.238 C 41.875 150.238 42.594 150.441 42.797 151.52 C 42.906 152.129 42.906 152.957 42.906 153.645 Z M 42.906 153.645 "/>
<path d="M 47.41 154.551 C 47.41 153.691 47.285 152.379 46.691 151.145 C 46.035 149.801 45.098 149.098 44.988 149.098 C 44.926 149.098 44.879 149.129 44.879 149.191 C 44.879 149.238 44.879 149.254 45.082 149.457 C 46.145 150.535 46.77 152.27 46.77 154.551 C 46.77 156.41 46.363 158.332 45.02 159.707 C 44.879 159.832 44.879 159.848 44.879 159.895 C 44.879 159.957 44.926 159.988 44.988 159.988 C 45.098 159.988 46.082 159.254 46.723 157.863 C 47.27 156.676 47.41 155.457 47.41 154.551 Z M 47.41 154.551 "/>
<path d="M 5.48 4.109 C 5.48 3.531 5.199 3.344 4.996 3.344 C 4.73 3.344 4.465 3.641 4.465 3.875 C 4.465 4.016 4.512 4.078 4.637 4.203 C 4.871 4.422 5.012 4.703 5.012 5.094 C 5.012 5.547 4.34 8.047 3.059 8.047 C 2.512 8.047 2.262 7.672 2.262 7.109 C 2.262 6.5 2.559 5.703 2.887 4.797 C 2.965 4.609 3.027 4.453 3.027 4.25 C 3.027 3.75 2.668 3.344 2.121 3.344 C 1.105 3.344 .684 4.938 .684 5.031 C .684 5.141 .824 5.141 .824 5.141 C .934 5.141 .934 5.125 .996 4.938 C 1.309 3.844 1.777 3.594 2.09 3.594 C 2.184 3.594 2.371 3.594 2.371 3.938 C 2.371 4.219 2.262 4.5 2.184 4.703 C 1.699 5.969 1.559 6.469 1.559 6.938 C 1.559 8.125 2.527 8.297 3.027 8.297 C 4.855 8.297 5.48 4.688 5.48 4.109 Z M 5.48 4.109 "/>
<path d="M 9.531 8.449 C 9.531 7.777 9 7.184 8.188 6.996 C 8.812 6.777 9.297 6.246 9.297 5.605 C 9.297 4.965 8.578 4.512 7.75 4.512 C 6.891 4.512 6.25 4.965 6.25 5.574 C 6.25 5.871 6.438 5.996 6.656 5.996 C 6.906 5.996 7.062 5.824 7.062 5.59 C 7.062 5.293 6.797 5.184 6.625 5.184 C 6.969 4.746 7.578 4.715 7.719 4.715 C 7.922 4.715 8.531 4.777 8.531 5.605 C 8.531 6.152 8.297 6.496 8.188 6.621 C 7.953 6.871 7.766 6.887 7.281 6.918 C 7.125 6.918 7.062 6.934 7.062 7.043 C 7.062 7.152 7.141 7.152 7.281 7.152 L 7.672 7.152 C 8.297 7.152 8.703 7.605 8.703 8.449 C 8.703 9.449 8.141 9.73 7.719 9.73 C 7.281 9.73 6.672 9.574 6.391 9.152 C 6.688 9.152 6.891 8.965 6.891 8.715 C 6.891 8.449 6.703 8.277 6.438 8.277 C 6.234 8.277 6 8.402 6 8.73 C 6 9.48 6.812 9.98 7.734 9.98 C 8.781 9.98 9.531 9.246 9.531 8.449 Z M 9.531 8.449 "/>
<path d="M 21.281 4.391 C 21.281 4.172 21.078 4.172 20.922 4.172 L 14.391 4.172 C 14.234 4.172 14.031 4.172 14.031 4.391 C 14.031 4.609 14.234 4.609 14.406 4.609 L 20.922 4.609 C 21.078 4.609 21.281 4.609 21.281 4.391 Z M 21.281 6.5 C 21.281 6.281 21.078 6.281 20.922 6.281 L 14.406 6.281 C 14.234 6.281 14.031 6.281 14.031 6.5 C 14.031 6.719 14.234 6.719 14.391 6.719 L 20.922 6.719 C 21.078 6.719 21.281 6.719 21.281 6.5 Z M 21.281 6.5 "/>
</g>
<path d="M 28.547 10.797 C 28.547 10.75 28.547 10.734 28.359 10.547 C 27 9.172 26.656 7.109 26.656 5.453 C 26.656 3.547 27.062 1.656 28.406 .281 C 28.547 .156 28.547 .141 28.547 .094 C 28.547 .031 28.5 0 28.438 0 C 28.328 0 27.344 .734 26.703 2.125 C 26.141 3.312 26.016 4.531 26.016 5.453 C 26.016 6.297 26.141 7.609 26.734 8.844 C 27.391 10.188 28.328 10.891 28.438 10.891 C 28.5 10.891 28.547 10.859 28.547 10.797 Z M 28.547 10.797 "/>
<path d="M 34.195 4.688 C 34.195 3.812 34.148 2.938 33.758 2.125 C 33.258 1.078 32.367 .906 31.898 .906 C 31.258 .906 30.461 1.188 30.008 2.203 C 29.664 2.953 29.602 3.812 29.602 4.688 C 29.602 5.5 29.648 6.484 30.102 7.312 C 30.57 8.188 31.367 8.406 31.898 8.406 C 32.477 8.406 33.32 8.188 33.789 7.141 C 34.148 6.391 34.195 5.547 34.195 4.688 Z M 33.289 4.547 C 33.289 5.375 33.289 6.109 33.164 6.812 C 33.008 7.844 32.383 8.172 31.898 8.172 C 31.477 8.172 30.82 7.906 30.633 6.859 C 30.508 6.203 30.508 5.188 30.508 4.547 C 30.508 3.859 30.508 3.141 30.602 2.547 C 30.805 1.25 31.617 1.141 31.898 1.141 C 32.258 1.141 32.977 1.344 33.18 2.422 C 33.289 3.031 33.289 3.859 33.289 4.547 Z M 33.289 4.547 "/>
<path d="M 36.852 8.156 C 36.852 7.438 36.57 7.016 36.148 7.016 C 35.789 7.016 35.57 7.281 35.57 7.594 C 35.57 7.891 35.789 8.172 36.148 8.172 C 36.273 8.172 36.414 8.125 36.523 8.031 C 36.57 8.016 36.586 8 36.586 8 C 36.586 8 36.602 8.016 36.602 8.156 C 36.602 8.969 36.227 9.625 35.867 9.984 C 35.742 10.109 35.742 10.125 35.742 10.156 C 35.742 10.234 35.805 10.281 35.852 10.281 C 35.977 10.281 36.852 9.438 36.852 8.156 Z M 36.852 8.156 "/>
<path d="M 44.043 8.172 L 44.043 7.828 L 43.699 7.828 C 42.715 7.828 42.684 7.719 42.684 7.312 L 42.684 1.188 C 42.684 .938 42.684 .906 42.434 .906 C 41.762 1.609 40.793 1.609 40.449 1.609 L 40.449 1.938 C 40.668 1.938 41.309 1.938 41.887 1.656 L 41.887 7.312 C 41.887 7.703 41.84 7.828 40.871 7.828 L 40.512 7.828 L 40.512 8.172 C 40.902 8.141 41.84 8.141 42.277 8.141 C 42.715 8.141 43.668 8.141 44.043 8.172 Z M 44.043 8.172 "/>
<path d="M 48.094 5.453 C 48.094 4.594 47.969 3.281 47.375 2.047 C 46.719 .703 45.781 0 45.672 0 C 45.609 0 45.562 .031 45.562 .094 C 45.562 .141 45.562 .156 45.766 .359 C 46.828 1.438 47.453 3.172 47.453 5.453 C 47.453 7.312 47.047 9.234 45.703 10.609 C 45.562 10.734 45.562 10.75 45.562 10.797 C 45.562 10.859 45.609 10.891 45.672 10.891 C 45.781 10.891 46.766 10.156 47.406 8.766 C 47.953 7.578 48.094 6.359 48.094 5.453 Z M 48.094 5.453 "/>
<clipPath id="cp4">
<path d="M 0 .305 L 373 .305 L 373 160 L 0 160 Z "/>
</clipPath>
<g clip-path="url(#cp4)">
<clipPath id="cp5">
<path d="M 0 0 L 373 0 L 373 160 L 0 160 Z "/>
</clipPath>
<g clip-path="url(#cp5)">
<path stroke-width="1.192765" stroke-linecap="butt" stroke-miterlimit="4" stroke-linejoin="miter" fill="none" stroke="#000000" d="M 370.344 145.887 L 304.621 61.91 L 238.895 145.855 Z M 370.344 145.887 "/>
</g>
<path d="M 243.625 153.207 C 243.625 152.613 243.328 152.441 243.156 152.441 C 242.875 152.441 242.609 152.738 242.609 152.973 C 242.609 153.113 242.672 153.176 242.766 153.27 C 242.891 153.395 243.156 153.676 243.156 154.191 C 243.156 154.566 242.844 155.629 242.562 156.191 C 242.281 156.77 241.891 157.145 241.359 157.145 C 240.844 157.145 240.547 156.816 240.547 156.207 C 240.547 155.895 240.625 155.551 240.672 155.41 L 241.125 153.566 C 241.188 153.332 241.297 152.926 241.297 152.863 C 241.297 152.66 241.141 152.566 240.984 152.566 C 240.844 152.566 240.656 152.66 240.578 152.879 C 240.547 152.957 240.031 155.035 239.953 155.316 C 239.875 155.645 239.859 155.848 239.859 156.035 C 239.859 156.16 239.859 156.176 239.875 156.238 C 239.609 156.816 239.297 157.145 238.859 157.145 C 237.984 157.145 237.984 156.348 237.984 156.16 C 237.984 155.801 238.047 155.379 238.562 154.035 C 238.672 153.707 238.75 153.566 238.75 153.348 C 238.75 152.848 238.391 152.441 237.844 152.441 C 236.812 152.441 236.406 154.035 236.406 154.129 C 236.406 154.238 236.547 154.238 236.547 154.238 C 236.656 154.238 236.656 154.223 236.719 154.035 C 237.016 153.02 237.438 152.691 237.812 152.691 C 237.922 152.691 238.094 152.707 238.094 153.051 C 238.094 153.316 237.969 153.629 237.891 153.816 C 237.406 155.098 237.281 155.598 237.281 156.02 C 237.281 157.004 238.016 157.395 238.828 157.395 C 239.016 157.395 239.531 157.395 239.969 156.629 C 240.25 157.316 241 157.395 241.328 157.395 C 242.141 157.395 242.625 156.707 242.906 156.051 C 243.281 155.191 243.625 153.738 243.625 153.207 Z M 243.625 153.207 "/>
<path d="M 247.465 158.906 L 247.465 158.641 L 247.184 158.641 C 246.434 158.641 246.402 158.547 246.402 158.25 L 246.402 153.828 C 246.402 153.609 246.387 153.609 246.168 153.609 C 245.84 153.922 245.418 154.109 244.668 154.109 L 244.668 154.375 C 244.887 154.375 245.309 154.375 245.777 154.172 L 245.777 158.25 C 245.777 158.547 245.746 158.641 244.996 158.641 L 244.715 158.641 L 244.715 158.906 C 245.043 158.875 245.73 158.875 246.09 158.875 C 246.449 158.875 247.137 158.875 247.465 158.906 Z M 247.465 158.906 "/>
<path d="M 368.672 153.207 C 368.672 152.613 368.375 152.441 368.203 152.441 C 367.922 152.441 367.656 152.738 367.656 152.973 C 367.656 153.113 367.719 153.176 367.812 153.27 C 367.938 153.395 368.203 153.676 368.203 154.191 C 368.203 154.566 367.891 155.629 367.609 156.191 C 367.328 156.77 366.938 157.145 366.406 157.145 C 365.891 157.145 365.594 156.816 365.594 156.207 C 365.594 155.895 365.672 155.551 365.719 155.41 L 366.172 153.566 C 366.234 153.332 366.344 152.926 366.344 152.863 C 366.344 152.66 366.188 152.566 366.031 152.566 C 365.891 152.566 365.703 152.66 365.625 152.879 C 365.594 152.957 365.078 155.035 365 155.316 C 364.922 155.645 364.906 155.848 364.906 156.035 C 364.906 156.16 364.906 156.176 364.922 156.238 C 364.656 156.816 364.344 157.145 363.906 157.145 C 363.031 157.145 363.031 156.348 363.031 156.16 C 363.031 155.801 363.094 155.379 363.609 154.035 C 363.719 153.707 363.797 153.566 363.797 153.348 C 363.797 152.848 363.438 152.441 362.891 152.441 C 361.859 152.441 361.453 154.035 361.453 154.129 C 361.453 154.238 361.594 154.238 361.594 154.238 C 361.703 154.238 361.703 154.223 361.766 154.035 C 362.062 153.02 362.484 152.691 362.859 152.691 C 362.969 152.691 363.141 152.707 363.141 153.051 C 363.141 153.316 363.016 153.629 362.938 153.816 C 362.453 155.098 362.328 155.598 362.328 156.02 C 362.328 157.004 363.062 157.395 363.875 157.395 C 364.062 157.395 364.578 157.395 365.016 156.629 C 365.297 157.316 366.047 157.395 366.375 157.395 C 367.188 157.395 367.672 156.707 367.953 156.051 C 368.328 155.191 368.672 153.738 368.672 153.207 Z M 368.672 153.207 "/>
<path d="M 372.75 157.484 L 372.5 157.484 C 372.484 157.641 372.422 158.031 372.328 158.188 C 372.281 158.25 371.672 158.25 371.547 158.25 L 370.125 158.25 L 371.203 157.281 C 371.328 157.156 371.656 156.891 371.797 156.781 C 372.281 156.328 372.75 155.891 372.75 155.172 C 372.75 154.219 371.953 153.609 370.969 153.609 C 370 153.609 369.375 154.328 369.375 155.047 C 369.375 155.438 369.688 155.484 369.797 155.484 C 369.969 155.484 370.219 155.375 370.219 155.062 C 370.219 154.656 369.812 154.656 369.719 154.656 C 369.953 154.062 370.484 153.875 370.875 153.875 C 371.609 153.875 372 154.5 372 155.172 C 372 156 371.422 156.609 370.469 157.562 L 369.469 158.609 C 369.375 158.688 369.375 158.703 369.375 158.906 L 372.516 158.906 Z M 372.75 157.484 "/>
<path d="M 308.43 51.891 C 308.43 51.297 308.133 51.125 307.961 51.125 C 307.68 51.125 307.414 51.422 307.414 51.656 C 307.414 51.797 307.477 51.859 307.57 51.953 C 307.695 52.078 307.961 52.359 307.961 52.875 C 307.961 53.25 307.648 54.312 307.367 54.875 C 307.086 55.453 306.695 55.828 306.164 55.828 C 305.648 55.828 305.352 55.5 305.352 54.891 C 305.352 54.578 305.43 54.234 305.477 54.094 L 305.93 52.25 C 305.992 52.016 306.102 51.609 306.102 51.547 C 306.102 51.344 305.945 51.25 305.789 51.25 C 305.648 51.25 305.461 51.344 305.383 51.562 C 305.352 51.641 304.836 53.719 304.758 54 C 304.68 54.328 304.664 54.531 304.664 54.719 C 304.664 54.844 304.664 54.859 304.68 54.922 C 304.414 55.5 304.102 55.828 303.664 55.828 C 302.789 55.828 302.789 55.031 302.789 54.844 C 302.789 54.484 302.852 54.062 303.367 52.719 C 303.477 52.391 303.555 52.25 303.555 52.031 C 303.555 51.531 303.195 51.125 302.648 51.125 C 301.617 51.125 301.211 52.719 301.211 52.812 C 301.211 52.922 301.352 52.922 301.352 52.922 C 301.461 52.922 301.461 52.906 301.523 52.719 C 301.82 51.703 302.242 51.375 302.617 51.375 C 302.727 51.375 302.898 51.391 302.898 51.734 C 302.898 52 302.773 52.312 302.695 52.5 C 302.211 53.781 302.086 54.281 302.086 54.703 C 302.086 55.688 302.82 56.078 303.633 56.078 C 303.82 56.078 304.336 56.078 304.773 55.312 C 305.055 56 305.805 56.078 306.133 56.078 C 306.945 56.078 307.43 55.391 307.711 54.734 C 308.086 53.875 308.43 52.422 308.43 51.891 Z M 308.43 51.891 "/>
<path d="M 312.586 56.234 C 312.586 55.562 312.055 54.969 311.242 54.781 C 311.867 54.562 312.352 54.031 312.352 53.391 C 312.352 52.75 311.633 52.297 310.805 52.297 C 309.945 52.297 309.305 52.75 309.305 53.359 C 309.305 53.656 309.492 53.781 309.711 53.781 C 309.961 53.781 310.117 53.609 310.117 53.375 C 310.117 53.078 309.852 52.969 309.68 52.969 C 310.023 52.531 310.633 52.5 310.773 52.5 C 310.977 52.5 311.586 52.562 311.586 53.391 C 311.586 53.938 311.352 54.281 311.242 54.406 C 311.008 54.656 310.82 54.672 310.336 54.703 C 310.18 54.703 310.117 54.719 310.117 54.828 C 310.117 54.938 310.195 54.938 310.336 54.938 L 310.727 54.938 C 311.352 54.938 311.758 55.391 311.758 56.234 C 311.758 57.234 311.195 57.516 310.773 57.516 C 310.336 57.516 309.727 57.359 309.445 56.938 C 309.742 56.938 309.945 56.75 309.945 56.5 C 309.945 56.234 309.758 56.062 309.492 56.062 C 309.289 56.062 309.055 56.188 309.055 56.516 C 309.055 57.266 309.867 57.766 310.789 57.766 C 311.836 57.766 312.586 57.031 312.586 56.234 Z M 312.586 56.234 "/>
<clipPath id="cp6">
<path d="M 0 0 L 373 0 L 373 160 L 0 160 Z "/>
</clipPath>
<g clip-path="url(#cp6)">
<path stroke-width="1.279975" stroke-linecap="butt" stroke-miterlimit="4" stroke-linejoin="miter" fill="none" stroke="#000000" d="M 133.5 87.387 C 158.137 51.066 220.562 49.734 241.941 87.387 "/>
<path transform="matrix(-.567647,-1,1,-.567647,0,0)" d="M -164.139 148.155 L -171.437 145.473 L -164.134 142.787 C -165.307 144.371 -165.3 146.539 -164.139 148.155 Z M -164.139 148.155 " fill-rule="evenodd"/>
<path transform="matrix(-.567647,-1,1,-.567647,0,0)" stroke-width=".417427" stroke-linecap="butt" stroke-linejoin="round" fill="none" stroke="#000000" d="M -164.139 148.155 L -171.437 145.473 L -164.134 142.787 C -165.307 144.371 -165.3 146.539 -164.139 148.155 Z M -164.139 148.155 "/>
</g>
<path d="M 183.309 47.773 C 183.402 47.508 183.637 46.555 183.637 46.07 C 183.637 45.461 183.34 45.305 183.168 45.305 C 182.887 45.305 182.621 45.602 182.621 45.836 C 182.621 45.977 182.684 46.039 182.777 46.133 C 182.902 46.258 183.168 46.539 183.168 47.055 C 183.168 47.758 182.605 48.648 182.215 49.039 C 181.262 50.008 180.559 50.008 180.168 50.008 L 181.965 42.852 C 181.98 42.805 182.012 42.742 182.012 42.68 C 182.012 42.57 181.934 42.57 181.871 42.57 C 181.762 42.57 181.746 42.586 181.715 42.789 L 179.902 49.992 C 179.074 49.898 178.652 49.492 178.652 48.773 C 178.652 48.555 178.652 48.273 179.246 46.742 C 179.293 46.617 179.371 46.43 179.371 46.211 C 179.371 45.711 179.012 45.305 178.465 45.305 C 177.434 45.305 177.027 46.898 177.027 46.992 C 177.027 47.102 177.168 47.102 177.168 47.102 C 177.277 47.102 177.277 47.086 177.34 46.898 C 177.637 45.867 178.074 45.555 178.434 45.555 C 178.527 45.555 178.715 45.555 178.715 45.898 C 178.715 46.18 178.605 46.461 178.465 46.836 C 177.934 48.211 177.934 48.492 177.934 48.68 C 177.934 49.711 178.793 50.164 179.84 50.227 C 179.746 50.617 179.746 50.648 179.59 51.227 C 179.559 51.336 179.34 52.227 179.34 52.258 C 179.34 52.258 179.34 52.367 179.48 52.367 C 179.48 52.367 179.543 52.367 179.574 52.32 C 179.605 52.305 179.668 52.023 179.699 51.883 L 180.121 50.258 C 180.527 50.258 181.48 50.258 182.512 49.086 C 182.949 48.586 183.184 48.102 183.309 47.773 Z M 183.309 47.773 "/>
<path d="M 187.977 50.77 C 187.977 50.691 187.914 50.66 187.852 50.66 C 187.758 50.66 187.742 50.723 187.711 50.863 C 187.602 51.238 187.398 51.77 187.023 51.77 C 186.82 51.77 186.773 51.598 186.773 51.379 C 186.773 51.27 186.773 51.176 186.82 50.988 C 186.82 50.957 186.852 50.832 186.852 50.754 C 186.852 50.098 186.039 49.957 185.633 49.895 C 185.93 49.723 186.195 49.441 186.289 49.348 C 186.727 48.91 187.086 48.613 187.477 48.613 C 187.57 48.613 187.664 48.645 187.727 48.723 C 187.305 48.785 187.305 49.16 187.305 49.16 C 187.305 49.332 187.445 49.457 187.617 49.457 C 187.836 49.457 188.07 49.285 188.07 48.957 C 188.07 48.676 187.883 48.395 187.477 48.395 C 187.023 48.395 186.602 48.754 186.148 49.207 C 185.68 49.66 185.492 49.738 185.352 49.801 L 186.148 46.613 C 186.148 46.598 186.18 46.488 186.18 46.488 C 186.18 46.457 186.148 46.379 186.055 46.379 C 186.023 46.379 185.773 46.41 185.586 46.426 L 185.148 46.457 C 184.961 46.473 184.883 46.473 184.883 46.613 C 184.883 46.738 184.992 46.738 185.102 46.738 C 185.477 46.738 185.477 46.785 185.477 46.848 C 185.477 46.879 185.477 46.895 185.445 47.035 L 184.305 51.566 C 184.273 51.691 184.273 51.738 184.273 51.738 C 184.273 51.879 184.383 51.988 184.539 51.988 C 184.805 51.988 184.867 51.738 184.898 51.629 L 185.273 50.113 C 185.711 50.16 186.258 50.301 186.258 50.77 C 186.258 50.801 186.258 50.848 186.242 50.926 C 186.211 51.02 186.195 51.145 186.195 51.176 C 186.195 51.645 186.539 51.988 187.008 51.988 C 187.336 51.988 187.555 51.738 187.648 51.598 C 187.852 51.301 187.977 50.816 187.977 50.77 Z M 187.977 50.77 "/>
<path d="M 33.066 99.633 L 33.363 97.742 C 33.379 97.695 33.379 97.586 33.379 97.555 C 33.379 97.43 33.27 97.43 33.098 97.43 L 27.035 97.43 C 26.77 97.43 26.77 97.445 26.691 97.648 L 26.035 99.57 C 26.02 99.602 25.973 99.773 25.973 99.773 C 25.973 99.836 26.02 99.898 26.098 99.898 C 26.207 99.898 26.223 99.836 26.285 99.664 C 26.879 97.977 27.16 97.773 28.77 97.773 L 29.191 97.773 C 29.504 97.773 29.504 97.82 29.504 97.898 C 29.504 97.977 29.473 98.102 29.457 98.133 L 28.004 103.961 C 27.895 104.367 27.863 104.477 26.707 104.477 C 26.301 104.477 26.238 104.477 26.238 104.695 C 26.238 104.82 26.363 104.82 26.426 104.82 C 26.723 104.82 27.02 104.805 27.316 104.805 L 28.254 104.789 L 29.16 104.805 C 29.473 104.805 29.801 104.82 30.098 104.82 C 30.207 104.82 30.348 104.82 30.348 104.602 C 30.348 104.477 30.254 104.477 29.973 104.477 C 29.691 104.477 29.551 104.477 29.27 104.461 C 28.957 104.43 28.863 104.398 28.863 104.227 C 28.863 104.227 28.863 104.148 28.91 103.992 L 30.363 98.195 C 30.441 97.898 30.488 97.836 30.613 97.789 C 30.707 97.773 31.066 97.773 31.301 97.773 C 32.41 97.773 32.895 97.82 32.895 98.664 C 32.895 98.836 32.848 99.258 32.801 99.539 C 32.801 99.586 32.77 99.711 32.77 99.742 C 32.77 99.82 32.801 99.898 32.91 99.898 C 33.02 99.898 33.051 99.805 33.066 99.633 Z M 33.066 99.633 "/>
<path d="M 304.789 109.316 L 305.086 107.426 C 305.102 107.379 305.102 107.27 305.102 107.238 C 305.102 107.113 304.992 107.113 304.82 107.113 L 298.758 107.113 C 298.492 107.113 298.492 107.129 298.414 107.332 L 297.758 109.254 C 297.742 109.285 297.695 109.457 297.695 109.457 C 297.695 109.52 297.742 109.582 297.82 109.582 C 297.93 109.582 297.945 109.52 298.008 109.348 C 298.602 107.66 298.883 107.457 300.492 107.457 L 300.914 107.457 C 301.227 107.457 301.227 107.504 301.227 107.582 C 301.227 107.66 301.195 107.785 301.18 107.816 L 299.727 113.645 C 299.617 114.051 299.586 114.16 298.43 114.16 C 298.023 114.16 297.961 114.16 297.961 114.379 C 297.961 114.504 298.086 114.504 298.148 114.504 C 298.445 114.504 298.742 114.488 299.039 114.488 L 299.977 114.473 L 300.883 114.488 C 301.195 114.488 301.523 114.504 301.82 114.504 C 301.93 114.504 302.07 114.504 302.07 114.285 C 302.07 114.16 301.977 114.16 301.695 114.16 C 301.414 114.16 301.273 114.16 300.992 114.145 C 300.68 114.113 300.586 114.082 300.586 113.91 C 300.586 113.91 300.586 113.832 300.633 113.676 L 302.086 107.879 C 302.164 107.582 302.211 107.52 302.336 107.473 C 302.43 107.457 302.789 107.457 303.023 107.457 C 304.133 107.457 304.617 107.504 304.617 108.348 C 304.617 108.52 304.57 108.941 304.523 109.223 C 304.523 109.27 304.492 109.395 304.492 109.426 C 304.492 109.504 304.523 109.582 304.633 109.582 C 304.742 109.582 304.773 109.488 304.789 109.316 Z M 304.789 109.316 "/>
<path d="M 307.961 115.141 C 307.961 115.062 307.898 115.031 307.836 115.031 C 307.742 115.031 307.727 115.094 307.695 115.234 C 307.586 115.609 307.383 116.141 307.008 116.141 C 306.805 116.141 306.758 115.969 306.758 115.75 C 306.758 115.641 306.758 115.547 306.805 115.359 C 306.805 115.328 306.836 115.203 306.836 115.125 C 306.836 114.469 306.023 114.328 305.617 114.266 C 305.914 114.094 306.18 113.812 306.273 113.719 C 306.711 113.281 307.07 112.984 307.461 112.984 C 307.555 112.984 307.648 113.016 307.711 113.094 C 307.289 113.156 307.289 113.531 307.289 113.531 C 307.289 113.703 307.43 113.828 307.602 113.828 C 307.82 113.828 308.055 113.656 308.055 113.328 C 308.055 113.047 307.867 112.766 307.461 112.766 C 307.008 112.766 306.586 113.125 306.133 113.578 C 305.664 114.031 305.477 114.109 305.336 114.172 L 306.133 110.984 C 306.133 110.969 306.164 110.859 306.164 110.859 C 306.164 110.828 306.133 110.75 306.039 110.75 C 306.008 110.75 305.758 110.781 305.57 110.797 L 305.133 110.828 C 304.945 110.844 304.867 110.844 304.867 110.984 C 304.867 111.109 304.977 111.109 305.086 111.109 C 305.461 111.109 305.461 111.156 305.461 111.219 C 305.461 111.25 305.461 111.266 305.43 111.406 L 304.289 115.938 C 304.258 116.062 304.258 116.109 304.258 116.109 C 304.258 116.25 304.367 116.359 304.523 116.359 C 304.789 116.359 304.852 116.109 304.883 116 L 305.258 114.484 C 305.695 114.531 306.242 114.672 306.242 115.141 C 306.242 115.172 306.242 115.219 306.227 115.297 C 306.195 115.391 306.18 115.516 306.18 115.547 C 306.18 116.016 306.523 116.359 306.992 116.359 C 307.32 116.359 307.539 116.109 307.633 115.969 C 307.836 115.672 307.961 115.188 307.961 115.141 Z M 307.961 115.141 "/>
</g>
</g>
</g>
</svg>
