<?xml version="1.0" encoding="UTF-8" standalone="no"?>
<svg xmlns="http://www.w3.org/2000/svg"
     xmlns:xlink="http://www.w3.org/1999/xlink"
     width="1664pt" height="1082pt" viewBox="0 0 1664 1082">
<title>favicon2</title>
<desc>
Creator: GL2PS 1.4.2, (C) 1999-2020 C. Geuzaine
For: Gmsh
CreationDate: Fri Nov  4 16:28:23 2022
</desc>
<defs>
</defs>
<g>
<polygon fill="#b5abff" shape-rendering="crispEdges" points="1106.56,900.094 1004.84,785.657 968.864,883.661"/>
<polygon fill="#b5abff" shape-rendering="crispEdges" points="735.642,883.661 699.67,785.657 597.949,900.094"/>
<polygon fill="#b5abff" shape-rendering="crispEdges" points="1106.56,772.942 1004.84,785.657 1106.56,900.094"/>
<polygon fill="#b5abff" shape-rendering="crispEdges" points="597.949,900.094 699.67,785.657 597.949,772.942"/>
<polygon fill="#b5abff" shape-rendering="crispEdges" points="801.392,544.068 852.253,645.789 903.114,544.068"/>
<polygon fill="#b5abff" shape-rendering="crispEdges" points="852.253,10.028 781.321,115.177 924.411,115.798"/>
<polygon fill="#b5abff" shape-rendering="crispEdges" points="852.253,10.028 924.411,115.798 979.405,10.028"/>
<polygon fill="#b5abff" shape-rendering="crispEdges" points="725.101,10.028 781.321,115.177 852.253,10.028"/>
<polygon fill="#b5abff" shape-rendering="crispEdges" points="1014.75,161.227 1047.87,76.4779 924.411,115.798"/>
<polygon fill="#b5abff" shape-rendering="crispEdges" points="781.321,115.177 656.683,76.4895 689.581,162.116"/>
<polygon fill="#b5abff" shape-rendering="crispEdges" points="968.864,883.661 1028.57,955.558 1106.56,900.094"/>
<polygon fill="#b5abff" shape-rendering="crispEdges" points="924.411,115.798 1047.87,76.4779 979.405,10.028"/>
<polygon fill="#b5abff" shape-rendering="crispEdges" points="597.949,900.094 675.936,955.591 735.642,883.661"/>
<polygon fill="#b5abff" shape-rendering="crispEdges" points="725.101,10.028 656.683,76.4895 781.321,115.177"/>
<polygon fill="#b5abff" shape-rendering="crispEdges" points="1004.84,340.624 897.509,354.189 953.975,442.346"/>
<polygon fill="#b5abff" shape-rendering="crispEdges" points="1055.7,238.902 940.083,240.649 1004.84,340.624"/>
<polygon fill="#b5abff" shape-rendering="crispEdges" points="699.67,340.624 762.334,245.716 648.81,238.902"/>
<polygon fill="#b5abff" shape-rendering="crispEdges" points="1004.84,340.624 940.083,240.649 897.509,354.189"/>
<polygon fill="#b5abff" shape-rendering="crispEdges" points="852.253,900.094 968.864,883.661 903.114,798.372"/>
<polygon fill="#b5abff" shape-rendering="crispEdges" points="940.083,240.649 1014.75,161.227 924.411,115.798"/>
<polygon fill="#b5abff" shape-rendering="crispEdges" points="801.392,798.372 735.642,883.661 852.253,900.094"/>
<polygon fill="#b5abff" shape-rendering="crispEdges" points="897.509,354.189 850.831,449.746 953.975,442.346"/>
<polygon fill="#b5abff" shape-rendering="crispEdges" points="953.975,442.346 850.831,449.746 903.114,544.068"/>
<polygon fill="#b5abff" shape-rendering="crispEdges" points="801.392,544.068 850.831,449.746 750.531,442.346"/>
<polygon fill="#b5abff" shape-rendering="crispEdges" points="781.321,115.177 689.581,162.116 762.334,245.716"/>
<polygon fill="#b5abff" shape-rendering="crispEdges" points="903.114,544.068 850.831,449.746 801.392,544.068"/>
<polygon fill="#b5abff" shape-rendering="crispEdges" points="897.509,354.189 795.047,356.512 850.831,449.746"/>
<polygon fill="#b5abff" shape-rendering="crispEdges" points="924.411,115.798 852.253,199.031 940.083,240.649"/>
<polygon fill="#b5abff" shape-rendering="crispEdges" points="699.67,340.624 795.047,356.512 762.334,245.716"/>
<polygon fill="#b5abff" shape-rendering="crispEdges" points="1055.7,238.902 1014.75,161.227 940.083,240.649"/>
<polygon fill="#b5abff" shape-rendering="crispEdges" points="762.334,245.716 852.253,199.031 781.321,115.177"/>
<polygon fill="#b5abff" shape-rendering="crispEdges" points="762.334,245.716 689.581,162.116 648.81,238.902"/>
<polygon fill="#b5abff" shape-rendering="crispEdges" points="1004.84,594.929 1038.47,702.307 1106.56,645.789"/>
<polygon fill="#b5abff" shape-rendering="crispEdges" points="953.975,696.65 1038.47,702.307 1004.84,594.929"/>
<polygon fill="#b5abff" shape-rendering="crispEdges" points="699.67,594.929 666.04,702.307 750.531,696.65"/>
<polygon fill="#b5abff" shape-rendering="crispEdges" points="597.949,645.789 666.04,702.307 699.67,594.929"/>
<polygon fill="#b5abff" shape-rendering="crispEdges" points="968.864,883.661 1004.84,785.657 903.114,798.372"/>
<polygon fill="#b5abff" shape-rendering="crispEdges" points="801.392,798.372 699.67,785.657 735.642,883.661"/>
<polygon fill="#b5abff" shape-rendering="crispEdges" points="781.321,115.177 852.253,199.031 924.411,115.798"/>
<polygon fill="#b5abff" shape-rendering="crispEdges" points="850.831,449.746 795.047,356.512 750.531,442.346"/>
<polygon fill="#b5abff" shape-rendering="crispEdges" points="597.949,772.942 666.04,702.307 597.949,645.789"/>
<polygon fill="#b5abff" shape-rendering="crispEdges" points="1106.56,645.789 1038.47,702.307 1106.56,772.942"/>
<polygon fill="#b5abff" shape-rendering="crispEdges" points="750.531,696.65 699.67,785.657 801.392,798.372"/>
<polygon fill="#b5abff" shape-rendering="crispEdges" points="903.114,798.372 1004.84,785.657 953.975,696.65"/>
<polygon fill="#b5abff" shape-rendering="crispEdges" points="1106.56,137.18 1014.75,161.227 1055.7,238.902"/>
<polygon fill="#b5abff" shape-rendering="crispEdges" points="648.81,238.902 689.581,162.116 597.949,137.18"/>
<polygon fill="#b5abff" shape-rendering="crispEdges" points="750.531,442.346 795.047,356.512 699.67,340.624"/>
<polygon fill="#b5abff" shape-rendering="crispEdges" points="940.083,240.649 840.069,282.73 897.509,354.189"/>
<polygon fill="#b5abff" shape-rendering="crispEdges" points="1233.71,137.18 1170.13,73.6041 1106.56,137.18"/>
<polygon fill="#b5abff" shape-rendering="crispEdges" points="597.949,137.18 534.372,73.6041 470.796,137.18"/>
<polygon fill="#b5abff" shape-rendering="crispEdges" points="1170.13,73.6041 1047.87,76.4779 1106.56,137.18"/>
<polygon fill="#b5abff" shape-rendering="crispEdges" points="597.949,137.18 656.683,76.4895 534.372,73.6041"/>
<polygon fill="#b5abff" shape-rendering="crispEdges" points="1106.56,900.094 1028.57,955.558 1106.56,1027.25"/>
<polygon fill="#b5abff" shape-rendering="crispEdges" points="1106.56,1027.25 1028.57,955.558 979.405,1027.25"/>
<polygon fill="#b5abff" shape-rendering="crispEdges" points="597.949,1027.25 675.936,955.591 597.949,900.094"/>
<polygon fill="#b5abff" shape-rendering="crispEdges" points="725.101,1027.25 675.936,955.591 597.949,1027.25"/>
<polygon fill="#b5abff" shape-rendering="crispEdges" points="979.405,10.028 1047.87,76.4779 1106.56,10.028"/>
<polygon fill="#b5abff" shape-rendering="crispEdges" points="597.949,10.028 656.683,76.4895 725.101,10.028"/>
<polygon fill="#b5abff" shape-rendering="crispEdges" points="852.253,900.094 791.514,961.194 912.967,960.572"/>
<polygon fill="#b5abff" shape-rendering="crispEdges" points="979.405,1027.25 912.967,960.572 852.253,1027.25"/>
<polygon fill="#b5abff" shape-rendering="crispEdges" points="852.253,1027.25 791.514,961.194 725.101,1027.25"/>
<polygon fill="#b5abff" shape-rendering="crispEdges" points="470.796,1027.25 407.22,963.67 343.644,1027.25"/>
<polygon fill="#b5abff" shape-rendering="crispEdges" points="343.644,1027.25 407.22,963.67 343.644,900.094"/>
<polygon fill="#b5abff" shape-rendering="crispEdges" points="1360.86,1027.25 1297.29,963.67 1233.71,1027.25"/>
<polygon fill="#b5abff" shape-rendering="crispEdges" points="1360.86,900.094 1297.29,963.67 1360.86,1027.25"/>
<polygon fill="#b5abff" shape-rendering="crispEdges" points="1360.86,10.028 1297.29,73.6041 1360.86,137.18"/>
<polygon fill="#b5abff" shape-rendering="crispEdges" points="1233.71,10.028 1297.29,73.6041 1360.86,10.028"/>
<polygon fill="#b5abff" shape-rendering="crispEdges" points="343.644,10.028 407.22,73.6041 470.796,10.028"/>
<polygon fill="#b5abff" shape-rendering="crispEdges" points="343.644,137.18 407.22,73.6041 343.644,10.028"/>
<polygon fill="#b5abff" shape-rendering="crispEdges" points="470.796,900.094 534.372,963.67 597.949,900.094"/>
<polygon fill="#b5abff" shape-rendering="crispEdges" points="470.796,900.094 407.22,963.67 470.796,1027.25"/>
<polygon fill="#b5abff" shape-rendering="crispEdges" points="470.796,1027.25 534.372,963.67 470.796,900.094"/>
<polygon fill="#b5abff" shape-rendering="crispEdges" points="343.644,900.094 407.22,963.67 470.796,900.094"/>
<polygon fill="#b5abff" shape-rendering="crispEdges" points="470.796,900.094 407.22,836.518 343.644,900.094"/>
<polygon fill="#b5abff" shape-rendering="crispEdges" points="470.796,772.942 407.22,836.518 470.796,900.094"/>
<polygon fill="#b5abff" shape-rendering="crispEdges" points="597.949,900.094 534.372,963.67 597.949,1027.25"/>
<polygon fill="#b5abff" shape-rendering="crispEdges" points="1106.56,900.094 1170.13,963.67 1233.71,900.094"/>
<polygon fill="#b5abff" shape-rendering="crispEdges" points="1106.56,1027.25 1170.13,963.67 1106.56,900.094"/>
<polygon fill="#b5abff" shape-rendering="crispEdges" points="1233.71,1027.25 1297.29,963.67 1233.71,900.094"/>
<polygon fill="#b5abff" shape-rendering="crispEdges" points="1233.71,900.094 1170.13,963.67 1233.71,1027.25"/>
<polygon fill="#b5abff" shape-rendering="crispEdges" points="1233.71,900.094 1297.29,963.67 1360.86,900.094"/>
<polygon fill="#b5abff" shape-rendering="crispEdges" points="1360.86,900.094 1297.29,836.518 1233.71,900.094"/>
<polygon fill="#b5abff" shape-rendering="crispEdges" points="1233.71,900.094 1297.29,836.518 1233.71,772.942"/>
<polygon fill="#b5abff" shape-rendering="crispEdges" points="1360.86,137.18 1297.29,73.6041 1233.71,137.18"/>
<polygon fill="#b5abff" shape-rendering="crispEdges" points="1233.71,137.18 1297.29,200.756 1360.86,137.18"/>
<polygon fill="#b5abff" shape-rendering="crispEdges" points="1233.71,10.028 1170.13,73.6041 1233.71,137.18"/>
<polygon fill="#b5abff" shape-rendering="crispEdges" points="1233.71,137.18 1297.29,73.6041 1233.71,10.028"/>
<polygon fill="#b5abff" shape-rendering="crispEdges" points="1233.71,264.333 1297.29,200.756 1233.71,137.18"/>
<polygon fill="#b5abff" shape-rendering="crispEdges" points="470.796,137.18 534.372,73.6041 470.796,10.028"/>
<polygon fill="#b5abff" shape-rendering="crispEdges" points="470.796,10.028 407.22,73.6041 470.796,137.18"/>
<polygon fill="#b5abff" shape-rendering="crispEdges" points="470.796,137.18 407.22,73.6041 343.644,137.18"/>
<polygon fill="#b5abff" shape-rendering="crispEdges" points="343.644,137.18 407.22,200.756 470.796,137.18"/>
<polygon fill="#b5abff" shape-rendering="crispEdges" points="470.796,137.18 407.22,200.756 470.796,264.333"/>
<polygon fill="#b5abff" shape-rendering="crispEdges" points="597.949,1027.25 534.372,963.67 470.796,1027.25"/>
<polygon fill="#b5abff" shape-rendering="crispEdges" points="1233.71,1027.25 1170.13,963.67 1106.56,1027.25"/>
<polygon fill="#b5abff" shape-rendering="crispEdges" points="1360.86,772.942 1297.29,836.518 1360.86,900.094"/>
<polygon fill="#b5abff" shape-rendering="crispEdges" points="1360.86,645.789 1297.29,709.366 1360.86,772.942"/>
<polygon fill="#b5abff" shape-rendering="crispEdges" points="1233.71,772.942 1297.29,836.518 1360.86,772.942"/>
<polygon fill="#b5abff" shape-rendering="crispEdges" points="1360.86,772.942 1297.29,709.366 1233.71,772.942"/>
<polygon fill="#b5abff" shape-rendering="crispEdges" points="1360.86,518.637 1297.29,582.213 1360.86,645.789"/>
<polygon fill="#b5abff" shape-rendering="crispEdges" points="1233.71,645.789 1297.29,709.366 1360.86,645.789"/>
<polygon fill="#b5abff" shape-rendering="crispEdges" points="1360.86,645.789 1297.29,582.213 1233.71,645.789"/>
<polygon fill="#b5abff" shape-rendering="crispEdges" points="1360.86,391.485 1297.29,455.061 1360.86,518.637"/>
<polygon fill="#b5abff" shape-rendering="crispEdges" points="1233.71,518.637 1297.29,582.213 1360.86,518.637"/>
<polygon fill="#b5abff" shape-rendering="crispEdges" points="1360.86,518.637 1297.29,455.061 1233.71,518.637"/>
<polygon fill="#b5abff" shape-rendering="crispEdges" points="1360.86,264.333 1297.29,327.909 1360.86,391.485"/>
<polygon fill="#b5abff" shape-rendering="crispEdges" points="1233.71,391.485 1297.29,455.061 1360.86,391.485"/>
<polygon fill="#b5abff" shape-rendering="crispEdges" points="1360.86,391.485 1297.29,327.909 1233.71,391.485"/>
<polygon fill="#b5abff" shape-rendering="crispEdges" points="1360.86,137.18 1297.29,200.756 1360.86,264.333"/>
<polygon fill="#b5abff" shape-rendering="crispEdges" points="1360.86,264.333 1297.29,200.756 1233.71,264.333"/>
<polygon fill="#b5abff" shape-rendering="crispEdges" points="1233.71,264.333 1297.29,327.909 1360.86,264.333"/>
<polygon fill="#b5abff" shape-rendering="crispEdges" points="1106.56,10.028 1170.13,73.6041 1233.71,10.028"/>
<polygon fill="#b5abff" shape-rendering="crispEdges" points="470.796,10.028 534.372,73.6041 597.949,10.028"/>
<polygon fill="#b5abff" shape-rendering="crispEdges" points="343.644,264.333 407.22,200.756 343.644,137.18"/>
<polygon fill="#b5abff" shape-rendering="crispEdges" points="343.644,391.485 407.22,327.909 343.644,264.333"/>
<polygon fill="#b5abff" shape-rendering="crispEdges" points="470.796,264.333 407.22,200.756 343.644,264.333"/>
<polygon fill="#b5abff" shape-rendering="crispEdges" points="343.644,264.333 407.22,327.909 470.796,264.333"/>
<polygon fill="#b5abff" shape-rendering="crispEdges" points="343.644,518.637 407.22,455.061 343.644,391.485"/>
<polygon fill="#b5abff" shape-rendering="crispEdges" points="470.796,391.485 407.22,327.909 343.644,391.485"/>
<polygon fill="#b5abff" shape-rendering="crispEdges" points="343.644,391.485 407.22,455.061 470.796,391.485"/>
<polygon fill="#b5abff" shape-rendering="crispEdges" points="343.644,645.789 407.22,582.213 343.644,518.637"/>
<polygon fill="#b5abff" shape-rendering="crispEdges" points="470.796,518.637 407.22,455.061 343.644,518.637"/>
<polygon fill="#b5abff" shape-rendering="crispEdges" points="343.644,518.637 407.22,582.213 470.796,518.637"/>
<polygon fill="#b5abff" shape-rendering="crispEdges" points="343.644,772.942 407.22,709.366 343.644,645.789"/>
<polygon fill="#b5abff" shape-rendering="crispEdges" points="470.796,645.789 407.22,582.213 343.644,645.789"/>
<polygon fill="#b5abff" shape-rendering="crispEdges" points="343.644,645.789 407.22,709.366 470.796,645.789"/>
<polygon fill="#b5abff" shape-rendering="crispEdges" points="343.644,900.094 407.22,836.518 343.644,772.942"/>
<polygon fill="#b5abff" shape-rendering="crispEdges" points="343.644,772.942 407.22,836.518 470.796,772.942"/>
<polygon fill="#b5abff" shape-rendering="crispEdges" points="470.796,772.942 407.22,709.366 343.644,772.942"/>
<polygon fill="#b5abff" shape-rendering="crispEdges" points="1233.71,772.942 1297.29,709.366 1233.71,645.789"/>
<polygon fill="#b5abff" shape-rendering="crispEdges" points="1233.71,645.789 1297.29,582.213 1233.71,518.637"/>
<polygon fill="#b5abff" shape-rendering="crispEdges" points="1233.71,518.637 1297.29,455.061 1233.71,391.485"/>
<polygon fill="#b5abff" shape-rendering="crispEdges" points="1233.71,391.485 1297.29,327.909 1233.71,264.333"/>
<polygon fill="#b5abff" shape-rendering="crispEdges" points="470.796,264.333 407.22,327.909 470.796,391.485"/>
<polygon fill="#b5abff" shape-rendering="crispEdges" points="470.796,391.485 407.22,455.061 470.796,518.637"/>
<polygon fill="#b5abff" shape-rendering="crispEdges" points="470.796,518.637 407.22,582.213 470.796,645.789"/>
<polygon fill="#b5abff" shape-rendering="crispEdges" points="470.796,645.789 407.22,709.366 470.796,772.942"/>
<polygon fill="#b5abff" shape-rendering="crispEdges" points="852.253,199.031 840.069,282.73 940.083,240.649"/>
<polygon fill="#b5abff" shape-rendering="crispEdges" points="795.047,356.512 840.069,282.73 762.334,245.716"/>
<polygon fill="#b5abff" shape-rendering="crispEdges" points="912.967,960.572 1028.57,955.558 968.864,883.661"/>
<polygon fill="#b5abff" shape-rendering="crispEdges" points="1106.56,10.028 1047.87,76.4779 1170.13,73.6041"/>
<polygon fill="#b5abff" shape-rendering="crispEdges" points="735.642,883.661 675.936,955.591 791.514,961.194"/>
<polygon fill="#b5abff" shape-rendering="crispEdges" points="534.372,73.6041 656.683,76.4895 597.949,10.028"/>
<polygon fill="#b5abff" shape-rendering="crispEdges" points="912.967,960.572 791.514,961.194 852.253,1027.25"/>
<polygon fill="#b5abff" shape-rendering="crispEdges" points="852.253,900.094 912.967,960.572 968.864,883.661"/>
<polygon fill="#b5abff" shape-rendering="crispEdges" points="979.405,1027.25 1028.57,955.558 912.967,960.572"/>
<polygon fill="#b5abff" shape-rendering="crispEdges" points="791.514,961.194 675.936,955.591 725.101,1027.25"/>
<polygon fill="#b5abff" shape-rendering="crispEdges" points="735.642,883.661 791.514,961.194 852.253,900.094"/>
<polygon fill="#b5abff" shape-rendering="crispEdges" points="750.531,696.65 666.04,702.307 699.67,785.657"/>
<polygon fill="#b5abff" shape-rendering="crispEdges" points="1004.84,785.657 1038.47,702.307 953.975,696.65"/>
<polygon fill="#b5abff" shape-rendering="crispEdges" points="1106.56,772.942 1038.47,702.307 1004.84,785.657"/>
<polygon fill="#b5abff" shape-rendering="crispEdges" points="699.67,785.657 666.04,702.307 597.949,772.942"/>
<polygon fill="#b5abff" shape-rendering="crispEdges" points="762.334,245.716 840.069,282.73 852.253,199.031"/>
<polygon fill="#b5abff" shape-rendering="crispEdges" points="1106.56,137.18 1047.87,76.4779 1014.75,161.227"/>
<polygon fill="#b5abff" shape-rendering="crispEdges" points="689.581,162.116 656.683,76.4895 597.949,137.18"/>
<polygon fill="#b5abff" shape-rendering="crispEdges" points="897.509,354.189 840.069,282.73 795.047,356.512"/>
<polygon fill="#b5abff" shape-rendering="crispEdges" points="597.949,391.485 597.949,518.637 648.81,493.207"/>
<polygon fill="#b5abff" shape-rendering="crispEdges" points="1055.7,493.207 1106.56,518.637 1106.56,391.485"/>
<polygon fill="#b5abff" shape-rendering="crispEdges" points="597.949,518.637 597.949,645.789 699.67,594.929"/>
<polygon fill="#b5abff" shape-rendering="crispEdges" points="597.949,518.637 699.67,594.929 648.81,493.207"/>
<polygon fill="#b5abff" shape-rendering="crispEdges" points="1004.84,594.929 1106.56,518.637 1055.7,493.207"/>
<polygon fill="#b5abff" shape-rendering="crispEdges" points="1004.84,594.929 1106.56,645.789 1106.56,518.637"/>
<polygon fill="#ffffff" shape-rendering="crispEdges" points="1004.84,340.624 1137.84,309.744 1055.7,238.902"/>
<polygon fill="#ffffff" shape-rendering="crispEdges" points="648.81,238.902 566.665,309.744 699.67,340.624"/>
<polygon fill="#ffffff" shape-rendering="crispEdges" points="1106.56,391.485 1137.84,309.744 1004.84,340.624"/>
<polygon fill="#ffffff" shape-rendering="crispEdges" points="699.67,340.624 566.665,309.744 597.949,391.485"/>
<polygon fill="#ffffff" shape-rendering="crispEdges" points="801.392,798.372 852.253,900.094 903.114,798.372"/>
<polygon fill="#ffffff" shape-rendering="crispEdges" points="953.975,696.65 852.253,730.558 903.114,798.372"/>
<polygon fill="#ffffff" shape-rendering="crispEdges" points="1106.56,137.18 1148.94,221.948 1233.71,137.18"/>
<polygon fill="#ffffff" shape-rendering="crispEdges" points="470.796,137.18 555.564,221.948 597.949,137.18"/>
<polygon fill="#ffffff" shape-rendering="crispEdges" points="801.392,798.372 852.253,730.558 750.531,696.65"/>
<polygon fill="#ffffff" shape-rendering="crispEdges" points="597.949,391.485 566.665,309.744 470.796,391.485"/>
<polygon fill="#ffffff" shape-rendering="crispEdges" points="1233.71,391.485 1137.84,309.744 1106.56,391.485"/>
<polygon fill="#ffffff" shape-rendering="crispEdges" points="852.253,645.789 852.253,730.558 953.975,696.65"/>
<polygon fill="#ffffff" shape-rendering="crispEdges" points="750.531,696.65 852.253,730.558 852.253,645.789"/>
<polygon fill="#ffffff" shape-rendering="crispEdges" points="1233.71,137.18 1148.94,221.948 1233.71,264.333"/>
<polygon fill="#ffffff" shape-rendering="crispEdges" points="470.796,264.333 555.564,221.948 470.796,137.18"/>
<polygon fill="#ffffff" shape-rendering="crispEdges" points="1055.7,238.902 1137.84,309.744 1148.94,221.948"/>
<polygon fill="#ffffff" shape-rendering="crispEdges" points="555.564,221.948 566.665,309.744 648.81,238.902"/>
<polygon fill="#ffffff" shape-rendering="crispEdges" points="597.949,391.485 534.372,455.061 597.949,518.637"/>
<polygon fill="#ffffff" shape-rendering="crispEdges" points="470.796,391.485 534.372,455.061 597.949,391.485"/>
<polygon fill="#ffffff" shape-rendering="crispEdges" points="470.796,391.485 566.665,309.744 470.796,264.333"/>
<polygon fill="#ffffff" shape-rendering="crispEdges" points="1233.71,264.333 1137.84,309.744 1233.71,391.485"/>
<polygon fill="#ffffff" shape-rendering="crispEdges" points="1106.56,518.637 1170.13,455.061 1106.56,391.485"/>
<polygon fill="#ffffff" shape-rendering="crispEdges" points="1106.56,391.485 1170.13,455.061 1233.71,391.485"/>
<polygon fill="#ffffff" shape-rendering="crispEdges" points="1055.7,238.902 1148.94,221.948 1106.56,137.18"/>
<polygon fill="#ffffff" shape-rendering="crispEdges" points="597.949,137.18 555.564,221.948 648.81,238.902"/>
<polygon fill="#ffffff" shape-rendering="crispEdges" points="903.114,798.372 852.253,730.558 801.392,798.372"/>
<polygon fill="#ffffff" shape-rendering="crispEdges" points="597.949,518.637 534.372,455.061 470.796,518.637"/>
<polygon fill="#ffffff" shape-rendering="crispEdges" points="470.796,518.637 534.372,455.061 470.796,391.485"/>
<polygon fill="#ffffff" shape-rendering="crispEdges" points="903.114,544.068 928.545,620.359 1004.84,594.929"/>
<polygon fill="#ffffff" shape-rendering="crispEdges" points="699.67,340.624 674.24,416.915 750.531,442.346"/>
<polygon fill="#ffffff" shape-rendering="crispEdges" points="1004.84,594.929 979.405,518.637 903.114,544.068"/>
<polygon fill="#ffffff" shape-rendering="crispEdges" points="1030.27,416.915 979.405,518.637 1055.7,493.207"/>
<polygon fill="#ffffff" shape-rendering="crispEdges" points="953.975,442.346 1030.27,416.915 1004.84,340.624"/>
<polygon fill="#ffffff" shape-rendering="crispEdges" points="597.949,391.485 674.24,416.915 699.67,340.624"/>
<polygon fill="#ffffff" shape-rendering="crispEdges" points="953.975,696.65 928.545,620.359 852.253,645.789"/>
<polygon fill="#ffffff" shape-rendering="crispEdges" points="852.253,645.789 928.545,620.359 903.114,544.068"/>
<polygon fill="#ffffff" shape-rendering="crispEdges" points="1004.84,594.929 928.545,620.359 953.975,696.65"/>
<polygon fill="#ffffff" shape-rendering="crispEdges" points="1106.56,391.485 1030.27,416.915 1055.7,493.207"/>
<polygon fill="#ffffff" shape-rendering="crispEdges" points="750.531,442.346 674.24,416.915 648.81,493.207"/>
<polygon fill="#ffffff" shape-rendering="crispEdges" points="648.81,493.207 725.101,518.637 750.531,442.346"/>
<polygon fill="#ffffff" shape-rendering="crispEdges" points="750.531,696.65 775.962,620.359 699.67,594.929"/>
<polygon fill="#ffffff" shape-rendering="crispEdges" points="597.949,900.094 534.372,836.518 470.796,900.094"/>
<polygon fill="#ffffff" shape-rendering="crispEdges" points="470.796,900.094 534.372,836.518 470.796,772.942"/>
<polygon fill="#ffffff" shape-rendering="crispEdges" points="597.949,772.942 534.372,836.518 597.949,900.094"/>
<polygon fill="#ffffff" shape-rendering="crispEdges" points="1233.71,900.094 1170.13,836.518 1106.56,900.094"/>
<polygon fill="#ffffff" shape-rendering="crispEdges" points="1106.56,900.094 1170.13,836.518 1106.56,772.942"/>
<polygon fill="#ffffff" shape-rendering="crispEdges" points="1233.71,772.942 1170.13,836.518 1233.71,900.094"/>
<polygon fill="#ffffff" shape-rendering="crispEdges" points="852.253,645.789 775.962,620.359 750.531,696.65"/>
<polygon fill="#ffffff" shape-rendering="crispEdges" points="597.949,645.789 534.372,709.366 597.949,772.942"/>
<polygon fill="#ffffff" shape-rendering="crispEdges" points="470.796,772.942 534.372,836.518 597.949,772.942"/>
<polygon fill="#ffffff" shape-rendering="crispEdges" points="597.949,772.942 534.372,709.366 470.796,772.942"/>
<polygon fill="#ffffff" shape-rendering="crispEdges" points="597.949,518.637 534.372,582.213 597.949,645.789"/>
<polygon fill="#ffffff" shape-rendering="crispEdges" points="470.796,645.789 534.372,709.366 597.949,645.789"/>
<polygon fill="#ffffff" shape-rendering="crispEdges" points="597.949,645.789 534.372,582.213 470.796,645.789"/>
<polygon fill="#ffffff" shape-rendering="crispEdges" points="470.796,518.637 534.372,582.213 597.949,518.637"/>
<polygon fill="#ffffff" shape-rendering="crispEdges" points="699.67,594.929 725.101,518.637 648.81,493.207"/>
<polygon fill="#ffffff" shape-rendering="crispEdges" points="1106.56,645.789 1170.13,582.213 1106.56,518.637"/>
<polygon fill="#ffffff" shape-rendering="crispEdges" points="1233.71,518.637 1170.13,455.061 1106.56,518.637"/>
<polygon fill="#ffffff" shape-rendering="crispEdges" points="1106.56,518.637 1170.13,582.213 1233.71,518.637"/>
<polygon fill="#ffffff" shape-rendering="crispEdges" points="1106.56,772.942 1170.13,709.366 1106.56,645.789"/>
<polygon fill="#ffffff" shape-rendering="crispEdges" points="1233.71,645.789 1170.13,582.213 1106.56,645.789"/>
<polygon fill="#ffffff" shape-rendering="crispEdges" points="1106.56,645.789 1170.13,709.366 1233.71,645.789"/>
<polygon fill="#ffffff" shape-rendering="crispEdges" points="1106.56,772.942 1170.13,836.518 1233.71,772.942"/>
<polygon fill="#ffffff" shape-rendering="crispEdges" points="1233.71,772.942 1170.13,709.366 1106.56,772.942"/>
<polygon fill="#ffffff" shape-rendering="crispEdges" points="1233.71,645.789 1170.13,709.366 1233.71,772.942"/>
<polygon fill="#ffffff" shape-rendering="crispEdges" points="1233.71,518.637 1170.13,582.213 1233.71,645.789"/>
<polygon fill="#ffffff" shape-rendering="crispEdges" points="1233.71,391.485 1170.13,455.061 1233.71,518.637"/>
<polygon fill="#ffffff" shape-rendering="crispEdges" points="903.114,544.068 979.405,518.637 953.975,442.346"/>
<polygon fill="#ffffff" shape-rendering="crispEdges" points="953.975,442.346 979.405,518.637 1030.27,416.915"/>
<polygon fill="#ffffff" shape-rendering="crispEdges" points="470.796,645.789 534.372,582.213 470.796,518.637"/>
<polygon fill="#ffffff" shape-rendering="crispEdges" points="470.796,772.942 534.372,709.366 470.796,645.789"/>
<polygon fill="#ffffff" shape-rendering="crispEdges" points="801.392,544.068 775.962,620.359 852.253,645.789"/>
<polygon fill="#ffffff" shape-rendering="crispEdges" points="775.962,620.359 725.101,518.637 699.67,594.929"/>
<polygon fill="#ffffff" shape-rendering="crispEdges" points="801.392,544.068 725.101,518.637 775.962,620.359"/>
<polygon fill="#ffffff" shape-rendering="crispEdges" points="1004.84,340.624 1030.27,416.915 1106.56,391.485"/>
<polygon fill="#ffffff" shape-rendering="crispEdges" points="648.81,493.207 674.24,416.915 597.949,391.485"/>
<polygon fill="#ffffff" shape-rendering="crispEdges" points="1055.7,493.207 979.405,518.637 1004.84,594.929"/>
<polygon fill="#ffffff" shape-rendering="crispEdges" points="750.531,442.346 725.101,518.637 801.392,544.068"/>
<polygon fill="#ffffff" shape-rendering="crispEdges" points="470.796,264.333 566.665,309.744 555.564,221.948"/>
<polygon fill="#ffffff" shape-rendering="crispEdges" points="1148.94,221.948 1137.84,309.744 1233.71,264.333"/>
<text fill="#000000" x="1637" y="1039" font-size="15" text-anchor="start" dy="0" font-family="Helvetica">X</text>
<text fill="#000000" x="1607" y="1009" font-size="15" text-anchor="start" dy="0" font-family="Helvetica">Y</text>
<text fill="#000000" x="1607" y="1039" font-size="15" text-anchor="start" dy="0" font-family="Helvetica">Z</text>
<polyline fill="none" stroke="#000000" stroke-width="1" stroke-linecap="butt" stroke-linejoin="miter" points="1604,1042 1634,1042"/>
<polyline fill="none" stroke="#000000" stroke-width="1" stroke-linecap="butt" stroke-linejoin="miter" points="1604,1042 1604,1012"/>
<polyline fill="none" stroke="#000000" stroke-width="1" stroke-linecap="butt" stroke-linejoin="miter" points="1604,1042 1604,1042"/>
</g>
</svg>
